<svg xmlns="http://www.w3.org/2000/svg" xmlns:xlink="http://www.w3.org/1999/xlink" width="500" zoomAndPan="magnify" viewBox="0 0 375 374.999991" height="500" preserveAspectRatio="xMidYMid meet" version="1.0"><defs><clipPath id="f6b29e6d15"><path d="M 46.191406 153 L 187 153 L 187 233 L 46.191406 233 Z M 46.191406 153 " clip-rule="nonzero"/></clipPath><clipPath id="4abfb78f32"><path d="M 188 139 L 328.941406 139 L 328.941406 218 L 188 218 Z M 188 139 " clip-rule="nonzero"/></clipPath><clipPath id="375328b1d1"><path d="M 117 245 L 145 245 L 145 272.835938 L 117 272.835938 Z M 117 245 " clip-rule="nonzero"/></clipPath><clipPath id="2b00ab8bb9"><path d="M 225 119.835938 L 244 119.835938 L 244 138 L 225 138 Z M 225 119.835938 " clip-rule="nonzero"/></clipPath><clipPath id="84d7dd2a38"><path d="M 114 103 L 247 103 L 247 191 L 114 191 Z M 114 103 " clip-rule="nonzero"/></clipPath><clipPath id="ecc839388f"><path d="M 106.992188 118.433594 L 238.035156 93.246094 L 254.03125 176.492188 L 122.988281 201.675781 Z M 106.992188 118.433594 " clip-rule="nonzero"/></clipPath><clipPath id="0728cd6b99"><path d="M 172.421875 105.859375 C 136.285156 112.804688 110.574219 137.066406 114.992188 160.054688 C 119.410156 183.042969 152.285156 196.046875 188.417969 189.101562 C 224.554688 182.15625 250.265625 157.890625 245.847656 134.90625 C 241.429688 111.917969 208.554688 98.914062 172.421875 105.859375 Z M 172.421875 105.859375 " clip-rule="nonzero"/></clipPath><clipPath id="b433f09dce"><path d="M 121.152344 105.429688 L 253.902344 105.429688 L 253.902344 281.679688 L 121.152344 281.679688 Z M 121.152344 105.429688 " clip-rule="nonzero"/></clipPath></defs><g clip-path="url(#f6b29e6d15)"><path fill="#31081f" d="M 100.492188 232 C 100.472656 230.9375 100.699219 229.933594 101.117188 229.023438 C 77.210938 228.828125 62.285156 224.339844 61.9375 215.574219 C 61.269531 198.488281 116.277344 171.40625 186.234375 153.941406 C 183.742188 154.492188 181.234375 155.066406 178.707031 155.664062 C 105.207031 173.019531 46.1875 201.433594 46.882812 219.128906 C 47.292969 229.542969 68.300781 233.925781 100.503906 232.226562 C 100.5 232.152344 100.496094 232.074219 100.492188 232 Z M 100.492188 232 " fill-opacity="1" fill-rule="nonzero"/></g><path fill="#31081f" d="M 115.246094 228.691406 C 115.613281 229.421875 115.875 230.207031 116.023438 231.023438 C 135.359375 229.082031 157.601562 225.328125 181.226562 219.75 C 183.753906 219.152344 186.257812 218.546875 188.75 217.917969 C 161.265625 224.035156 135.929688 227.621094 115.246094 228.691406 Z M 115.246094 228.691406 " fill-opacity="1" fill-rule="nonzero"/><g clip-path="url(#4abfb78f32)"><path fill="#31081f" d="M 234.917969 143.964844 C 235.015625 144.429688 235.070312 144.902344 235.085938 145.378906 C 280.667969 139.769531 312.550781 143.429688 313.054688 156.285156 C 313.726562 173.371094 258.71875 200.453125 188.75 217.917969 C 191.242188 217.371094 193.753906 216.792969 196.28125 216.195312 C 269.785156 198.839844 328.804688 170.425781 328.113281 152.730469 C 327.550781 138.484375 288.472656 135.527344 234.917969 143.964844 Z M 234.917969 143.964844 " fill-opacity="1" fill-rule="nonzero"/></g><path fill="#31081f" d="M 203.527344 149.894531 C 200.300781 150.597656 197.046875 151.332031 193.765625 152.109375 C 191.234375 152.707031 188.726562 153.316406 186.234375 153.941406 C 192.128906 152.628906 197.917969 151.4375 203.585938 150.359375 C 203.5625 150.203125 203.542969 150.050781 203.527344 149.894531 Z M 203.527344 149.894531 " fill-opacity="1" fill-rule="nonzero"/><path fill="#31081f" d="M 109.996094 208.515625 C 108.613281 236.949219 107.488281 238.070312 79.058594 239.457031 C 107.488281 240.839844 108.613281 241.964844 109.996094 270.394531 C 111.382812 241.964844 112.507812 240.839844 140.9375 239.457031 C 112.507812 238.070312 111.382812 236.949219 109.996094 208.515625 Z M 109.996094 243.699219 C 107.652344 243.699219 105.753906 241.800781 105.753906 239.457031 C 105.753906 237.113281 107.652344 235.214844 109.996094 235.214844 C 112.339844 235.214844 114.242188 237.113281 114.242188 239.457031 C 114.242188 241.800781 112.339844 243.699219 109.996094 243.699219 Z M 109.996094 243.699219 " fill-opacity="1" fill-rule="nonzero"/><g clip-path="url(#375328b1d1)"><path fill="#31081f" d="M 131.324219 245.632812 C 130.71875 258.046875 130.226562 258.539062 117.8125 259.144531 C 130.226562 259.75 130.71875 260.238281 131.324219 272.652344 C 131.925781 260.238281 132.417969 259.75 144.832031 259.144531 C 132.417969 258.539062 131.925781 258.046875 131.324219 245.632812 Z M 131.324219 245.632812 " fill-opacity="1" fill-rule="nonzero"/></g><g clip-path="url(#2b00ab8bb9)"><path fill="#31081f" d="M 234.277344 119.851562 C 233.886719 127.878906 233.566406 128.195312 225.542969 128.585938 C 233.566406 128.976562 233.886719 129.292969 234.277344 137.320312 C 234.667969 129.292969 234.984375 128.976562 243.007812 128.585938 C 234.984375 128.195312 234.667969 127.878906 234.277344 119.851562 Z M 234.277344 119.851562 " fill-opacity="1" fill-rule="nonzero"/></g><path fill="#31081f" d="M 218.898438 125.269531 C 217.921875 145.28125 217.132812 146.074219 197.117188 147.046875 C 217.132812 148.023438 217.921875 148.8125 218.898438 168.828125 C 219.875 148.8125 220.664062 148.023438 240.679688 147.046875 C 220.664062 146.074219 219.875 145.28125 218.898438 125.269531 Z M 218.898438 150.035156 C 217.25 150.035156 215.910156 148.699219 215.910156 147.046875 C 215.910156 145.398438 217.25 144.0625 218.898438 144.0625 C 220.546875 144.0625 221.886719 145.398438 221.886719 147.046875 C 221.886719 148.699219 220.546875 150.035156 218.898438 150.035156 Z M 218.898438 150.035156 " fill-opacity="1" fill-rule="nonzero"/><g clip-path="url(#84d7dd2a38)"><g clip-path="url(#ecc839388f)"><g clip-path="url(#0728cd6b99)"><path fill="#ffffff" d="M 106.992188 118.433594 L 237.707031 93.308594 L 253.707031 176.554688 L 122.988281 201.675781 Z M 106.992188 118.433594 " fill-opacity="1" fill-rule="nonzero"/></g></g></g><g clip-path="url(#b433f09dce)"><path fill="#31081f" d="M 187.496094 105.429688 C 150.96875 105.429688 121.253906 135.144531 121.253906 171.671875 L 121.253906 215.472656 C 121.253906 252 150.96875 281.714844 187.496094 281.714844 C 224.023438 281.714844 253.742188 252 253.742188 215.472656 L 253.742188 171.671875 C 253.742188 135.144531 224.023438 105.429688 187.496094 105.429688 Z M 252.65625 215.472656 C 252.65625 251.398438 223.425781 280.628906 187.496094 280.628906 C 151.570312 280.628906 122.339844 251.398438 122.339844 215.472656 L 122.339844 171.671875 C 122.339844 135.746094 151.570312 106.515625 187.496094 106.515625 C 223.425781 106.515625 252.65625 135.746094 252.65625 171.671875 Z M 212.046875 252.898438 C 212.246094 253.125 212.226562 253.46875 212 253.667969 C 210.164062 255.289062 207.792969 256.90625 204.957031 258.476562 C 203.207031 259.445312 201.542969 260.394531 200.003906 261.296875 C 199.917969 261.347656 199.824219 261.375 199.730469 261.375 C 199.542969 261.375 199.363281 261.28125 199.261719 261.105469 C 199.109375 260.847656 199.195312 260.515625 199.453125 260.363281 C 201 259.457031 202.671875 258.503906 204.425781 257.53125 C 207.195312 255.996094 209.503906 254.425781 211.28125 252.851562 C 211.503906 252.652344 211.847656 252.675781 212.046875 252.898438 Z M 215.730469 249.238281 C 215.296875 250.007812 214.746094 250.785156 214.097656 251.550781 C 213.988281 251.675781 213.835938 251.742188 213.683594 251.742188 C 213.558594 251.742188 213.433594 251.699219 213.332031 251.613281 C 213.105469 251.417969 213.074219 251.074219 213.269531 250.847656 C 213.875 250.136719 214.382812 249.417969 214.78125 248.707031 C 214.925781 248.449219 215.257812 248.355469 215.519531 248.5 C 215.78125 248.648438 215.875 248.976562 215.730469 249.238281 Z M 149.558594 243.71875 C 149.382812 243.71875 149.253906 243.710938 149.191406 243.707031 L 143.878906 243.707031 C 143.578125 243.707031 143.335938 243.464844 143.335938 243.164062 C 143.335938 242.863281 143.578125 242.621094 143.878906 242.621094 L 149.222656 242.621094 C 149.242188 242.621094 149.265625 242.621094 149.285156 242.625 C 149.394531 242.632812 151.957031 242.894531 153.554688 240.339844 C 153.664062 240.164062 153.859375 240.070312 154.0625 240.085938 C 154.265625 240.105469 154.441406 240.234375 154.515625 240.421875 C 154.554688 240.511719 155.46875 242.632812 157.796875 242.632812 L 161.394531 242.632812 C 161.695312 242.632812 161.9375 242.878906 161.9375 243.175781 C 161.9375 243.476562 161.695312 243.71875 161.394531 243.71875 L 157.796875 243.71875 C 155.75 243.71875 154.550781 242.484375 153.964844 241.632812 C 152.414062 243.503906 150.40625 243.71875 149.558594 243.71875 Z M 165.132812 243.175781 C 165.132812 242.878906 165.378906 242.632812 165.675781 242.632812 L 168.050781 242.632812 C 168.351562 242.632812 168.59375 242.878906 168.59375 243.175781 C 168.59375 243.476562 168.351562 243.71875 168.050781 243.71875 L 165.675781 243.71875 C 165.378906 243.71875 165.132812 243.476562 165.132812 243.175781 Z M 181.132812 243.175781 C 181.132812 242.878906 181.375 242.632812 181.675781 242.632812 L 191.175781 242.632812 C 191.476562 242.632812 191.71875 242.878906 191.71875 243.175781 C 191.71875 243.476562 191.476562 243.71875 191.175781 243.71875 L 181.675781 243.71875 C 181.375 243.71875 181.132812 243.476562 181.132812 243.175781 Z M 196.671875 243.175781 C 196.671875 242.878906 196.914062 242.632812 197.214844 242.632812 L 199.984375 242.632812 C 200.285156 242.632812 200.527344 242.878906 200.527344 243.175781 C 200.527344 243.476562 200.285156 243.71875 199.984375 243.71875 L 197.214844 243.71875 C 196.914062 243.71875 196.671875 243.476562 196.671875 243.175781 Z M 162.722656 254.074219 C 162.722656 253.773438 162.964844 253.53125 163.265625 253.53125 L 166.367188 253.53125 C 170.175781 253.53125 170.476562 250.828125 170.488281 250.71875 C 170.511719 250.441406 170.746094 250.230469 171.019531 250.226562 C 171.292969 250.21875 171.535156 250.425781 171.566406 250.699219 C 171.582031 250.792969 171.945312 253.121094 175.371094 253.121094 C 178.855469 253.121094 179.523438 250.734375 179.550781 250.632812 C 179.617188 250.390625 179.835938 250.214844 180.089844 250.230469 C 180.335938 250.234375 180.554688 250.40625 180.609375 250.652344 C 181.226562 253.441406 185.824219 253.488281 185.871094 253.488281 L 189.492188 253.488281 C 189.792969 253.488281 190.035156 253.730469 190.035156 254.03125 C 190.035156 254.332031 189.792969 254.574219 189.492188 254.574219 L 185.871094 254.574219 C 185.671875 254.574219 181.570312 254.539062 180.027344 252.0625 C 179.359375 253.015625 178.003906 254.210938 175.375 254.210938 C 172.949219 254.210938 171.714844 253.199219 171.097656 252.285156 C 170.4375 253.445312 169.03125 254.625 166.371094 254.625 L 163.269531 254.625 C 162.964844 254.617188 162.722656 254.375 162.722656 254.074219 Z M 158.175781 254.617188 L 154.121094 254.617188 C 153.820312 254.617188 153.578125 254.375 153.578125 254.074219 C 153.578125 253.773438 153.820312 253.53125 154.121094 253.53125 L 158.175781 253.53125 C 158.476562 253.53125 158.71875 253.773438 158.71875 254.074219 C 158.71875 254.375 158.476562 254.617188 158.175781 254.617188 Z M 172.585938 264.046875 C 172.585938 264.347656 172.34375 264.589844 172.042969 264.589844 L 170.128906 264.589844 C 167.410156 264.589844 165.984375 263.636719 165.269531 262.835938 C 165.140625 262.695312 165.03125 262.550781 164.933594 262.414062 C 164.566406 262.945312 163.9375 263.476562 162.894531 263.921875 C 161.863281 264.363281 160.71875 264.589844 159.492188 264.589844 L 158.359375 264.589844 C 158.058594 264.589844 157.816406 264.347656 157.816406 264.046875 C 157.816406 263.746094 158.058594 263.503906 158.359375 263.503906 L 159.492188 263.503906 C 160.570312 263.503906 161.574219 263.308594 162.464844 262.921875 C 163.703125 262.394531 164.332031 261.714844 164.332031 260.898438 C 164.332031 260.613281 164.554688 260.375 164.839844 260.355469 C 165.132812 260.339844 165.378906 260.550781 165.414062 260.835938 C 165.425781 260.941406 165.835938 263.503906 170.132812 263.503906 L 172.046875 263.503906 C 172.34375 263.503906 172.585938 263.746094 172.585938 264.046875 Z M 178.007812 264.046875 C 178.007812 264.347656 177.765625 264.589844 177.464844 264.589844 L 175.816406 264.589844 C 175.515625 264.589844 175.273438 264.347656 175.273438 264.046875 C 175.273438 263.746094 175.515625 263.503906 175.816406 263.503906 L 177.464844 263.503906 C 177.765625 263.503906 178.007812 263.746094 178.007812 264.046875 Z M 221.160156 240.175781 C 221.160156 240.527344 220.878906 240.808594 220.527344 240.808594 C 220.175781 240.808594 219.894531 240.527344 219.894531 240.175781 C 219.894531 239.824219 220.175781 239.542969 220.527344 239.542969 C 220.878906 239.542969 221.160156 239.824219 221.160156 240.175781 Z M 234.554688 238.730469 C 234.554688 239.078125 234.273438 239.363281 233.921875 239.363281 C 233.570312 239.363281 233.289062 239.078125 233.289062 238.730469 C 233.289062 238.378906 233.570312 238.09375 233.921875 238.09375 C 234.273438 238.09375 234.554688 238.378906 234.554688 238.730469 Z M 226.953125 245.96875 C 226.953125 246.320312 226.671875 246.601562 226.320312 246.601562 C 225.96875 246.601562 225.6875 246.320312 225.6875 245.96875 C 225.6875 245.617188 225.96875 245.335938 226.320312 245.335938 C 226.671875 245.335938 226.953125 245.617188 226.953125 245.96875 Z M 219.714844 258.277344 C 219.714844 258.625 219.433594 258.910156 219.082031 258.910156 C 218.730469 258.910156 218.445312 258.625 218.445312 258.277344 C 218.445312 257.925781 218.730469 257.640625 219.082031 257.640625 C 219.433594 257.640625 219.714844 257.925781 219.714844 258.277344 Z M 202.339844 264.429688 C 202.339844 264.78125 202.054688 265.0625 201.707031 265.0625 C 201.355469 265.0625 201.070312 264.78125 201.070312 264.429688 C 201.070312 264.078125 201.355469 263.796875 201.707031 263.796875 C 202.054688 263.796875 202.339844 264.078125 202.339844 264.429688 Z M 201.613281 269.859375 C 201.613281 270.210938 201.332031 270.492188 200.980469 270.492188 C 200.628906 270.492188 200.347656 270.210938 200.347656 269.859375 C 200.347656 269.507812 200.628906 269.226562 200.980469 269.226562 C 201.332031 269.226562 201.613281 269.507812 201.613281 269.859375 Z M 247.316406 164.746094 C 243.667969 135.03125 218.273438 111.945312 187.589844 111.945312 C 154.40625 111.945312 127.410156 138.941406 127.410156 172.125 L 127.410156 215.019531 C 127.410156 219.332031 127.867188 223.542969 128.738281 227.605469 C 128.742188 227.652344 128.75 227.695312 128.765625 227.738281 C 129.285156 230.136719 129.945312 232.480469 130.738281 234.765625 C 130.75 234.832031 130.773438 234.898438 130.808594 234.960938 C 131.820312 237.84375 133.050781 240.625 134.476562 243.289062 C 134.496094 243.394531 134.546875 243.484375 134.617188 243.558594 C 144.796875 262.378906 164.726562 275.199219 187.589844 275.199219 C 213.777344 275.199219 236.109375 258.378906 244.363281 234.980469 C 244.410156 234.914062 244.433594 234.832031 244.445312 234.746094 C 245.238281 232.464844 245.894531 230.125 246.414062 227.726562 C 246.425781 227.691406 246.4375 227.652344 246.4375 227.613281 C 246.742188 226.195312 246.992188 224.761719 247.195312 223.3125 C 247.203125 223.285156 247.203125 223.265625 247.207031 223.238281 C 247.574219 220.550781 247.769531 217.804688 247.769531 215.019531 L 247.769531 172.125 C 247.769531 170.609375 247.714844 169.109375 247.605469 167.621094 C 247.605469 167.621094 247.605469 167.621094 247.605469 167.617188 C 247.605469 167.613281 247.605469 167.609375 247.605469 167.609375 C 247.535156 166.691406 247.445312 165.773438 247.332031 164.871094 C 247.332031 164.871094 247.332031 164.871094 247.332031 164.867188 C 247.328125 164.828125 247.324219 164.785156 247.316406 164.746094 Z M 245.457031 227.011719 L 129.71875 227.011719 C 129.492188 225.929688 129.300781 224.835938 129.140625 223.730469 L 246.039062 223.730469 C 245.875 224.835938 245.683594 225.929688 245.457031 227.011719 Z M 243.503906 234.140625 L 131.671875 234.140625 C 130.996094 232.171875 130.425781 230.15625 129.957031 228.097656 L 245.222656 228.097656 C 244.753906 230.152344 244.179688 232.167969 243.503906 234.140625 Z M 208.15625 243.324219 C 208.019531 239.4375 204.34375 236.640625 201.957031 235.226562 L 205.050781 235.226562 C 205.90625 235.644531 211.972656 238.769531 212.160156 243.613281 C 212.320312 247.625 208.496094 251.816406 200.804688 256.078125 C 190.988281 261.515625 184.414062 266.164062 181.261719 269.894531 C 179.800781 271.621094 179.398438 272.800781 179.332031 273.53125 C 178 273.339844 176.683594 273.113281 175.378906 272.839844 C 176.242188 270.246094 180.058594 264.121094 196.613281 255.585938 C 204.421875 251.566406 208.304688 247.4375 208.15625 243.324219 Z M 146.957031 172.667969 L 146.957031 178.328125 L 142.191406 178.328125 L 142.191406 176.746094 C 142.191406 176.445312 141.949219 176.203125 141.648438 176.203125 C 141.347656 176.203125 141.105469 176.445312 141.105469 176.746094 L 141.105469 178.328125 L 140.621094 178.328125 C 140.320312 178.328125 140.078125 178.570312 140.078125 178.871094 L 140.078125 189.695312 L 138.566406 189.695312 C 138.570312 189.664062 138.574219 189.625 138.574219 189.589844 L 138.574219 188.328125 C 138.574219 188.03125 138.332031 187.785156 138.03125 187.785156 C 137.734375 187.785156 137.488281 188.03125 137.488281 188.328125 L 137.488281 189.589844 C 137.488281 189.625 137.492188 189.664062 137.5 189.695312 L 135.371094 189.695312 L 135.371094 184.269531 C 135.371094 183.96875 135.128906 183.726562 134.828125 183.726562 L 134.589844 183.726562 L 134.589844 182.539062 C 134.589844 182.238281 134.347656 181.996094 134.046875 181.996094 C 133.746094 181.996094 133.503906 182.238281 133.503906 182.539062 L 133.503906 183.726562 L 130.609375 183.726562 L 130.609375 182.539062 C 130.609375 182.238281 130.367188 181.996094 130.066406 181.996094 C 129.765625 181.996094 129.523438 182.238281 129.523438 182.539062 L 129.523438 183.726562 L 128.496094 183.726562 L 128.496094 172.667969 Z M 154.816406 176.097656 L 164.875 176.097656 C 165.175781 176.097656 165.417969 175.855469 165.417969 175.554688 C 165.417969 175.253906 165.175781 175.011719 164.875 175.011719 L 154.816406 175.011719 L 154.816406 172.480469 L 164.875 172.480469 C 165.175781 172.480469 165.417969 172.234375 165.417969 171.9375 C 165.417969 171.636719 165.175781 171.394531 164.875 171.394531 L 154.816406 171.394531 L 154.816406 168.859375 L 164.875 168.859375 C 165.175781 168.859375 165.417969 168.617188 165.417969 168.316406 C 165.417969 168.015625 165.175781 167.773438 164.875 167.773438 L 154.816406 167.773438 L 154.816406 165.238281 L 164.875 165.238281 C 165.175781 165.238281 165.417969 164.996094 165.417969 164.695312 C 165.417969 164.394531 165.175781 164.152344 164.875 164.152344 L 154.816406 164.152344 L 154.816406 161.621094 L 164.875 161.621094 C 165.175781 161.621094 165.417969 161.375 165.417969 161.078125 C 165.417969 160.777344 165.175781 160.535156 164.875 160.535156 L 154.816406 160.535156 L 154.816406 156.914062 L 171.871094 156.914062 L 171.871094 160.1875 L 169.109375 162.183594 C 168.96875 162.285156 168.882812 162.449219 168.882812 162.625 L 168.882812 222.648438 L 164.230469 222.648438 L 164.230469 178.871094 C 164.230469 178.570312 163.988281 178.328125 163.6875 178.328125 L 154.816406 178.328125 Z M 212.472656 156.832031 L 201.792969 156.832031 L 201.792969 154.269531 L 212.472656 154.269531 Z M 216.648438 157.917969 L 216.648438 164.324219 L 215.515625 164.324219 C 215.515625 164.3125 215.519531 164.304688 215.519531 164.292969 L 215.519531 162.183594 C 215.519531 161.882812 215.277344 161.640625 214.976562 161.640625 C 214.675781 161.640625 214.433594 161.882812 214.433594 162.183594 L 214.433594 164.292969 C 214.433594 164.304688 214.4375 164.3125 214.4375 164.324219 L 213.613281 164.324219 C 213.3125 164.324219 213.070312 164.566406 213.070312 164.867188 L 213.070312 183.980469 L 209.171875 183.980469 C 208.871094 183.980469 208.628906 184.222656 208.628906 184.523438 L 208.628906 187.054688 L 205.941406 187.054688 C 205.640625 187.054688 205.398438 187.296875 205.398438 187.597656 L 205.398438 193.027344 L 202.007812 193.027344 L 202.007812 169.800781 C 202.007812 169.5 201.761719 169.257812 201.464844 169.257812 L 200.675781 169.257812 L 200.675781 167.976562 C 200.675781 167.675781 200.433594 167.433594 200.132812 167.433594 C 199.835938 167.433594 199.589844 167.675781 199.589844 167.976562 L 199.589844 169.257812 L 197.269531 169.257812 L 197.269531 157.917969 Z M 223.695312 183.980469 L 220.800781 183.980469 L 220.800781 182.53125 L 223.695312 182.53125 Z M 224.816406 185.066406 L 224.816406 187.054688 L 209.714844 187.054688 L 209.714844 185.066406 Z M 233.46875 193.027344 L 230.574219 193.027344 L 230.574219 191.582031 L 233.46875 191.582031 Z M 230.03125 194.113281 L 239.785156 194.113281 L 239.785156 222.644531 L 228.988281 222.644531 L 228.988281 194.113281 Z M 240.871094 200.628906 L 243.242188 200.628906 L 243.242188 203.527344 L 240.871094 203.527344 Z M 240.347656 193.03125 L 240.347656 191.582031 L 243.242188 191.582031 L 243.242188 194.476562 L 240.871094 194.476562 L 240.871094 193.570312 C 240.871094 193.277344 240.636719 193.039062 240.347656 193.03125 Z M 223.246094 222.644531 L 223.246094 206.96875 L 227.902344 206.96875 L 227.902344 222.644531 Z M 212.488281 222.644531 L 212.488281 206.96875 L 222.160156 206.96875 L 222.160156 222.644531 Z M 206.484375 222.644531 L 206.484375 206.96875 L 211.402344 206.96875 L 211.402344 222.644531 Z M 194.773438 222.644531 L 194.773438 194.113281 L 205.398438 194.113281 L 205.398438 222.644531 Z M 212.472656 205.882812 C 212.484375 204.980469 212.660156 203.058594 213.84375 201.796875 C 214.644531 200.941406 215.78125 200.511719 217.261719 200.539062 C 218.761719 200.5625 219.9375 201.027344 220.765625 201.921875 C 221.925781 203.183594 222.132812 205.011719 222.164062 205.882812 Z M 227.902344 205.882812 L 223.25 205.882812 C 223.222656 204.867188 222.988281 202.742188 221.566406 201.191406 C 220.53125 200.066406 219.085938 199.480469 217.273438 199.449219 C 215.484375 199.421875 214.058594 199.964844 213.042969 201.058594 C 211.597656 202.609375 211.394531 204.832031 211.386719 205.882812 L 206.484375 205.882812 L 206.484375 188.140625 L 227.902344 188.140625 Z M 246.296875 165.410156 C 246.359375 165.964844 246.417969 166.515625 246.464844 167.074219 L 214.15625 167.074219 L 214.15625 165.410156 Z M 200.921875 170.34375 L 200.921875 174.152344 L 194.230469 174.152344 C 193.929688 174.152344 193.6875 174.394531 193.6875 174.695312 C 193.6875 174.996094 193.929688 175.238281 194.230469 175.238281 L 200.921875 175.238281 L 200.921875 177.410156 L 194.230469 177.410156 C 193.929688 177.410156 193.6875 177.652344 193.6875 177.953125 C 193.6875 178.253906 193.929688 178.496094 194.230469 178.496094 L 200.921875 178.496094 L 200.921875 180.667969 L 194.230469 180.667969 C 193.929688 180.667969 193.6875 180.910156 193.6875 181.210938 C 193.6875 181.511719 193.929688 181.753906 194.230469 181.753906 L 200.921875 181.753906 L 200.921875 183.925781 L 194.230469 183.925781 C 193.929688 183.925781 193.6875 184.167969 193.6875 184.46875 C 193.6875 184.769531 193.929688 185.011719 194.230469 185.011719 L 200.921875 185.011719 L 200.921875 187.183594 L 194.230469 187.183594 C 193.929688 187.183594 193.6875 187.425781 193.6875 187.726562 C 193.6875 188.027344 193.929688 188.269531 194.230469 188.269531 L 200.921875 188.269531 L 200.921875 190.441406 L 194.230469 190.441406 C 193.929688 190.441406 193.6875 190.683594 193.6875 190.984375 C 193.6875 191.285156 193.929688 191.527344 194.230469 191.527344 L 200.921875 191.527344 L 200.921875 193.027344 L 194.230469 193.027344 C 193.929688 193.027344 193.6875 193.269531 193.6875 193.570312 L 193.6875 222.644531 L 189.488281 222.644531 L 189.488281 170.34375 Z M 169.96875 222.644531 L 169.96875 211.644531 L 188.402344 198.429688 L 188.402344 222.640625 L 169.96875 222.640625 Z M 188.402344 166.691406 L 169.96875 179.90625 L 169.96875 176.898438 L 188.402344 163.683594 Z M 169.96875 189.929688 L 188.402344 176.714844 L 188.402344 179.722656 L 169.96875 192.9375 Z M 169.96875 194.273438 L 188.402344 181.058594 L 188.402344 184.066406 L 169.96875 197.28125 Z M 169.96875 198.617188 L 188.402344 185.402344 L 188.402344 188.410156 L 169.96875 201.625 Z M 169.96875 202.960938 L 188.402344 189.746094 L 188.402344 192.753906 L 169.96875 205.96875 Z M 188.402344 175.378906 L 169.96875 188.59375 L 169.96875 185.585938 L 188.402344 172.371094 Z M 169.96875 207.304688 L 188.402344 194.089844 L 188.402344 197.097656 L 169.96875 210.3125 Z M 188.402344 171.035156 L 169.96875 184.25 L 169.96875 181.242188 L 188.402344 168.027344 Z M 188.402344 162.347656 L 169.96875 175.5625 L 169.96875 172.554688 L 188.402344 159.339844 Z M 188.402344 158.003906 L 169.96875 171.21875 L 169.96875 162.902344 L 188.402344 149.570312 Z M 163.148438 179.414062 L 163.148438 222.644531 L 141.164062 222.644531 L 141.164062 179.414062 Z M 128.496094 189.695312 L 128.496094 184.8125 L 134.285156 184.8125 L 134.285156 189.695312 Z M 140.078125 190.78125 L 140.078125 222.644531 L 128.988281 222.644531 C 128.664062 220.148438 128.496094 217.601562 128.496094 215.019531 L 128.496094 190.78125 Z M 240.871094 222.644531 L 240.871094 213.660156 L 243.785156 213.660156 C 244.085938 213.660156 244.328125 213.417969 244.328125 213.117188 L 244.328125 209.136719 C 244.328125 208.835938 244.085938 208.59375 243.785156 208.59375 L 240.871094 208.59375 L 240.871094 204.613281 L 243.785156 204.613281 C 244.085938 204.613281 244.328125 204.371094 244.328125 204.070312 L 244.328125 200.085938 C 244.328125 199.785156 244.085938 199.542969 243.785156 199.542969 L 240.871094 199.542969 L 240.871094 195.5625 L 243.785156 195.5625 C 244.085938 195.5625 244.328125 195.320312 244.328125 195.019531 L 244.328125 191.039062 C 244.328125 190.738281 244.085938 190.496094 243.785156 190.496094 L 239.804688 190.496094 C 239.503906 190.496094 239.261719 190.738281 239.261719 191.039062 L 239.261719 193.027344 L 234.554688 193.027344 L 234.554688 191.039062 C 234.554688 190.738281 234.3125 190.496094 234.011719 190.496094 L 230.03125 190.496094 C 229.730469 190.496094 229.488281 190.738281 229.488281 191.039062 L 229.488281 193.027344 L 228.988281 193.027344 L 228.988281 187.597656 C 228.988281 187.296875 228.746094 187.054688 228.445312 187.054688 L 225.902344 187.054688 L 225.902344 184.523438 C 225.902344 184.222656 225.660156 183.980469 225.359375 183.980469 L 224.78125 183.980469 L 224.78125 181.988281 C 224.78125 181.6875 224.539062 181.445312 224.238281 181.445312 L 220.257812 181.445312 C 219.957031 181.445312 219.714844 181.6875 219.714844 181.988281 L 219.714844 183.980469 L 214.15625 183.980469 L 214.15625 168.164062 L 246.542969 168.164062 C 246.632812 169.472656 246.683594 170.792969 246.683594 172.125 L 246.683594 215.019531 C 246.683594 217.601562 246.515625 220.148438 246.1875 222.644531 Z M 241.234375 212.574219 L 241.234375 209.679688 L 243.242188 209.679688 L 243.242188 212.574219 Z M 187.589844 113.03125 C 217.527344 113.03125 242.339844 135.410156 246.167969 164.324219 L 217.738281 164.324219 L 217.738281 157.375 C 217.738281 157.074219 217.496094 156.832031 217.195312 156.832031 L 213.558594 156.832031 L 213.558594 153.726562 C 213.558594 153.429688 213.316406 153.183594 213.015625 153.183594 L 201.25 153.183594 C 200.949219 153.183594 200.707031 153.429688 200.707031 153.726562 L 200.707031 156.832031 L 196.726562 156.832031 C 196.429688 156.832031 196.183594 157.074219 196.183594 157.375 L 196.183594 169.257812 L 189.488281 169.257812 L 189.488281 148.503906 C 189.488281 148.300781 189.371094 148.113281 189.191406 148.019531 C 189.011719 147.929688 188.792969 147.945312 188.628906 148.0625 L 172.957031 159.398438 L 172.957031 156.367188 C 172.957031 156.066406 172.714844 155.824219 172.414062 155.824219 L 165.417969 155.824219 L 165.417969 147.601562 C 165.417969 147.300781 165.175781 147.058594 164.875 147.058594 C 164.574219 147.058594 164.332031 147.300781 164.332031 147.601562 L 164.332031 155.824219 L 161.796875 155.824219 L 161.796875 151.945312 C 161.796875 151.644531 161.554688 151.402344 161.253906 151.402344 C 160.953125 151.402344 160.710938 151.644531 160.710938 151.945312 L 160.710938 155.824219 L 154.273438 155.824219 C 153.972656 155.824219 153.730469 156.066406 153.730469 156.367188 L 153.730469 178.328125 L 148.042969 178.328125 L 148.042969 172.125 C 148.042969 171.824219 147.800781 171.582031 147.5 171.582031 L 128.5 171.582031 C 128.796875 139.246094 155.1875 113.03125 187.589844 113.03125 Z M 143.726562 254.578125 L 147.535156 254.617188 C 147.539062 254.617188 147.539062 254.617188 147.542969 254.617188 C 147.839844 254.617188 148.082031 254.378906 148.085938 254.082031 C 148.089844 253.78125 147.847656 253.535156 147.550781 253.53125 L 142.800781 253.480469 C 142.796875 253.480469 142.796875 253.480469 142.792969 253.480469 C 142.78125 253.480469 142.773438 253.484375 142.765625 253.484375 C 140.179688 250.476562 137.894531 247.207031 135.949219 243.71875 L 137.96875 243.71875 C 138.269531 243.71875 138.511719 243.476562 138.511719 243.175781 C 138.511719 242.878906 138.269531 242.632812 137.96875 242.632812 L 135.355469 242.632812 C 134.089844 240.257812 132.984375 237.785156 132.050781 235.226562 L 199.625 235.226562 C 200.496094 235.625 206.898438 238.710938 207.066406 243.363281 C 207.195312 247.023438 203.511719 250.8125 196.113281 254.628906 C 179.539062 263.171875 175.304688 269.4375 174.3125 272.609375 C 162.320312 269.84375 151.707031 263.417969 143.726562 254.578125 Z M 187.589844 274.113281 C 186.53125 274.113281 185.480469 274.082031 184.4375 274.027344 C 184.425781 273.976562 184.402344 273.921875 184.371094 273.871094 C 184.347656 273.746094 184.207031 272.257812 189.320312 268.304688 C 189.5625 268.121094 189.605469 267.78125 189.417969 267.546875 C 189.234375 267.308594 188.894531 267.265625 188.660156 267.449219 C 185.230469 270.09375 183.421875 272.171875 183.285156 273.617188 C 183.273438 273.742188 183.273438 273.859375 183.289062 273.957031 C 182.324219 273.886719 181.371094 273.792969 180.417969 273.679688 C 180.492188 272.535156 182.105469 267.6875 201.335938 257.035156 C 209.414062 252.558594 213.421875 248.03125 213.25 243.570312 C 213.089844 239.527344 209.550781 236.660156 207.277344 235.226562 L 209.015625 235.226562 C 209.605469 235.566406 212.445312 237.289062 214.292969 239.964844 C 214.398438 240.113281 214.566406 240.199219 214.742188 240.199219 C 214.84375 240.199219 214.953125 240.164062 215.046875 240.101562 C 215.292969 239.929688 215.355469 239.589844 215.1875 239.34375 C 213.910156 237.496094 212.230469 236.097656 211.011719 235.226562 L 243.125 235.226562 C 234.847656 257.886719 213.078125 274.113281 187.589844 274.113281 Z M 224.394531 193.570312 C 224.394531 193.871094 224.152344 194.113281 223.851562 194.113281 L 210.992188 194.113281 C 210.691406 194.113281 210.449219 193.871094 210.449219 193.570312 C 210.449219 193.269531 210.691406 193.027344 210.992188 193.027344 L 223.847656 193.027344 C 224.152344 193.027344 224.394531 193.269531 224.394531 193.570312 Z M 136.097656 220.089844 L 136.097656 194.296875 C 136.097656 193.996094 136.339844 193.753906 136.640625 193.753906 C 136.941406 193.753906 137.183594 193.996094 137.183594 194.296875 L 137.183594 220.089844 C 137.183594 220.390625 136.941406 220.632812 136.640625 220.632812 C 136.339844 220.632812 136.097656 220.390625 136.097656 220.089844 Z M 131.390625 220.089844 L 131.390625 194.296875 C 131.390625 193.996094 131.632812 193.753906 131.933594 193.753906 C 132.234375 193.753906 132.476562 193.996094 132.476562 194.296875 L 132.476562 220.089844 C 132.476562 220.390625 132.234375 220.632812 131.933594 220.632812 C 131.632812 220.632812 131.390625 220.390625 131.390625 220.089844 Z M 143.699219 183.074219 L 143.699219 186.695312 C 143.699219 186.996094 143.941406 187.238281 144.242188 187.238281 L 160.167969 187.238281 C 160.46875 187.238281 160.710938 186.996094 160.710938 186.695312 L 160.710938 183.074219 C 160.710938 182.773438 160.46875 182.53125 160.167969 182.53125 L 144.242188 182.53125 C 143.941406 182.53125 143.699219 182.773438 143.699219 183.074219 Z M 144.785156 183.617188 L 159.625 183.617188 L 159.625 186.152344 L 144.785156 186.152344 Z M 160.167969 191.21875 L 144.242188 191.21875 C 143.941406 191.21875 143.699219 191.460938 143.699219 191.761719 L 143.699219 195.382812 C 143.699219 195.683594 143.941406 195.925781 144.242188 195.925781 L 160.167969 195.925781 C 160.46875 195.925781 160.710938 195.683594 160.710938 195.382812 L 160.710938 191.761719 C 160.710938 191.460938 160.46875 191.21875 160.167969 191.21875 Z M 159.625 194.839844 L 144.785156 194.839844 L 144.785156 192.304688 L 159.625 192.304688 Z M 160.167969 199.90625 L 144.242188 199.90625 C 143.941406 199.90625 143.699219 200.148438 143.699219 200.449219 L 143.699219 204.070312 C 143.699219 204.371094 143.941406 204.613281 144.242188 204.613281 L 160.167969 204.613281 C 160.46875 204.613281 160.710938 204.371094 160.710938 204.070312 L 160.710938 200.449219 C 160.710938 200.148438 160.46875 199.90625 160.167969 199.90625 Z M 159.625 203.527344 L 144.785156 203.527344 L 144.785156 200.992188 L 159.625 200.992188 Z M 160.167969 208.59375 L 144.242188 208.59375 C 143.941406 208.59375 143.699219 208.835938 143.699219 209.136719 L 143.699219 212.757812 C 143.699219 213.058594 143.941406 213.300781 144.242188 213.300781 L 160.167969 213.300781 C 160.46875 213.300781 160.710938 213.058594 160.710938 212.757812 L 160.710938 209.136719 C 160.710938 208.835938 160.46875 208.59375 160.167969 208.59375 Z M 159.625 212.214844 L 144.785156 212.214844 L 144.785156 209.679688 L 159.625 209.679688 Z M 224.238281 172.394531 L 220.257812 172.394531 C 219.957031 172.394531 219.714844 172.636719 219.714844 172.9375 L 219.714844 176.921875 C 219.714844 177.222656 219.957031 177.464844 220.257812 177.464844 L 224.238281 177.464844 C 224.539062 177.464844 224.78125 177.222656 224.78125 176.921875 L 224.78125 172.9375 C 224.78125 172.636719 224.539062 172.394531 224.238281 172.394531 Z M 223.695312 176.378906 L 220.800781 176.378906 L 220.800781 173.480469 L 223.695312 173.480469 Z M 234.011719 172.394531 L 230.03125 172.394531 C 229.730469 172.394531 229.488281 172.636719 229.488281 172.9375 L 229.488281 176.921875 C 229.488281 177.222656 229.730469 177.464844 230.03125 177.464844 L 234.011719 177.464844 C 234.3125 177.464844 234.554688 177.222656 234.554688 176.921875 L 234.554688 172.9375 C 234.554688 172.636719 234.3125 172.394531 234.011719 172.394531 Z M 233.46875 176.378906 L 230.574219 176.378906 L 230.574219 173.480469 L 233.46875 173.480469 Z M 243.785156 172.394531 L 239.804688 172.394531 C 239.503906 172.394531 239.261719 172.636719 239.261719 172.9375 L 239.261719 176.921875 C 239.261719 177.222656 239.503906 177.464844 239.804688 177.464844 L 243.785156 177.464844 C 244.085938 177.464844 244.328125 177.222656 244.328125 176.921875 L 244.328125 172.9375 C 244.328125 172.636719 244.085938 172.394531 243.785156 172.394531 Z M 243.242188 176.378906 L 240.347656 176.378906 L 240.347656 173.480469 L 243.242188 173.480469 Z M 234.011719 181.445312 L 230.03125 181.445312 C 229.730469 181.445312 229.488281 181.6875 229.488281 181.988281 L 229.488281 185.96875 C 229.488281 186.269531 229.730469 186.511719 230.03125 186.511719 L 234.011719 186.511719 C 234.3125 186.511719 234.554688 186.269531 234.554688 185.96875 L 234.554688 181.988281 C 234.554688 181.6875 234.3125 181.445312 234.011719 181.445312 Z M 233.46875 185.425781 L 230.574219 185.425781 L 230.574219 182.53125 L 233.46875 182.53125 Z M 243.785156 181.445312 L 239.804688 181.445312 C 239.503906 181.445312 239.261719 181.6875 239.261719 181.988281 L 239.261719 185.96875 C 239.261719 186.269531 239.503906 186.511719 239.804688 186.511719 L 243.785156 186.511719 C 244.085938 186.511719 244.328125 186.269531 244.328125 185.96875 L 244.328125 181.988281 C 244.328125 181.6875 244.085938 181.445312 243.785156 181.445312 Z M 243.242188 185.425781 L 240.347656 185.425781 L 240.347656 182.53125 L 243.242188 182.53125 Z M 198.890625 198.339844 L 198.890625 200.449219 C 198.890625 200.75 198.648438 200.992188 198.347656 200.992188 C 198.046875 200.992188 197.804688 200.75 197.804688 200.449219 L 197.804688 198.339844 C 197.804688 198.039062 198.046875 197.796875 198.347656 197.796875 C 198.648438 197.796875 198.890625 198.039062 198.890625 198.339844 Z M 202.507812 198.339844 L 202.507812 200.449219 C 202.507812 200.75 202.265625 200.992188 201.964844 200.992188 C 201.664062 200.992188 201.421875 200.75 201.421875 200.449219 L 201.421875 198.339844 C 201.421875 198.039062 201.664062 197.796875 201.964844 197.796875 C 202.265625 197.796875 202.507812 198.039062 202.507812 198.339844 Z M 198.890625 204.128906 L 198.890625 206.242188 C 198.890625 206.542969 198.648438 206.785156 198.347656 206.785156 C 198.046875 206.785156 197.804688 206.542969 197.804688 206.242188 L 197.804688 204.128906 C 197.804688 203.832031 198.046875 203.585938 198.347656 203.585938 C 198.648438 203.585938 198.890625 203.832031 198.890625 204.128906 Z M 202.507812 204.128906 L 202.507812 206.242188 C 202.507812 206.542969 202.265625 206.785156 201.964844 206.785156 C 201.664062 206.785156 201.421875 206.542969 201.421875 206.242188 L 201.421875 204.128906 C 201.421875 203.832031 201.664062 203.585938 201.964844 203.585938 C 202.265625 203.585938 202.507812 203.832031 202.507812 204.128906 Z M 198.890625 209.921875 L 198.890625 212.03125 C 198.890625 212.332031 198.648438 212.574219 198.347656 212.574219 C 198.046875 212.574219 197.804688 212.332031 197.804688 212.03125 L 197.804688 209.921875 C 197.804688 209.621094 198.046875 209.378906 198.347656 209.378906 C 198.648438 209.378906 198.890625 209.621094 198.890625 209.921875 Z M 202.507812 209.921875 L 202.507812 212.03125 C 202.507812 212.332031 202.265625 212.574219 201.964844 212.574219 C 201.664062 212.574219 201.421875 212.332031 201.421875 212.03125 L 201.421875 209.921875 C 201.421875 209.621094 201.664062 209.378906 201.964844 209.378906 C 202.265625 209.378906 202.507812 209.621094 202.507812 209.921875 Z M 198.890625 215.714844 L 198.890625 217.824219 C 198.890625 218.125 198.648438 218.367188 198.347656 218.367188 C 198.046875 218.367188 197.804688 218.125 197.804688 217.824219 L 197.804688 215.714844 C 197.804688 215.414062 198.046875 215.171875 198.347656 215.171875 C 198.648438 215.171875 198.890625 215.414062 198.890625 215.714844 Z M 202.507812 215.714844 L 202.507812 217.824219 C 202.507812 218.125 202.265625 218.367188 201.964844 218.367188 C 201.664062 218.367188 201.421875 218.125 201.421875 217.824219 L 201.421875 215.714844 C 201.421875 215.414062 201.664062 215.171875 201.964844 215.171875 C 202.265625 215.171875 202.507812 215.414062 202.507812 215.714844 Z M 232.191406 200.449219 L 232.191406 198.339844 C 232.191406 198.039062 232.433594 197.796875 232.734375 197.796875 C 233.035156 197.796875 233.277344 198.039062 233.277344 198.339844 L 233.277344 200.449219 C 233.277344 200.75 233.035156 200.992188 232.734375 200.992188 C 232.433594 200.992188 232.191406 200.75 232.191406 200.449219 Z M 235.8125 200.449219 L 235.8125 198.339844 C 235.8125 198.039062 236.054688 197.796875 236.355469 197.796875 C 236.65625 197.796875 236.898438 198.039062 236.898438 198.339844 L 236.898438 200.449219 C 236.898438 200.75 236.65625 200.992188 236.355469 200.992188 C 236.054688 200.992188 235.8125 200.75 235.8125 200.449219 Z M 232.191406 206.242188 L 232.191406 204.128906 C 232.191406 203.832031 232.433594 203.585938 232.734375 203.585938 C 233.035156 203.585938 233.277344 203.832031 233.277344 204.128906 L 233.277344 206.242188 C 233.277344 206.542969 233.035156 206.785156 232.734375 206.785156 C 232.433594 206.785156 232.191406 206.542969 232.191406 206.242188 Z M 235.8125 206.242188 L 235.8125 204.128906 C 235.8125 203.832031 236.054688 203.585938 236.355469 203.585938 C 236.65625 203.585938 236.898438 203.832031 236.898438 204.128906 L 236.898438 206.242188 C 236.898438 206.542969 236.65625 206.785156 236.355469 206.785156 C 236.054688 206.785156 235.8125 206.542969 235.8125 206.242188 Z M 232.191406 212.03125 L 232.191406 209.921875 C 232.191406 209.621094 232.433594 209.378906 232.734375 209.378906 C 233.035156 209.378906 233.277344 209.621094 233.277344 209.921875 L 233.277344 212.03125 C 233.277344 212.332031 233.035156 212.574219 232.734375 212.574219 C 232.433594 212.574219 232.191406 212.332031 232.191406 212.03125 Z M 235.8125 212.03125 L 235.8125 209.921875 C 235.8125 209.621094 236.054688 209.378906 236.355469 209.378906 C 236.65625 209.378906 236.898438 209.621094 236.898438 209.921875 L 236.898438 212.03125 C 236.898438 212.332031 236.65625 212.574219 236.355469 212.574219 C 236.054688 212.574219 235.8125 212.332031 235.8125 212.03125 Z M 232.191406 217.824219 L 232.191406 215.714844 C 232.191406 215.414062 232.433594 215.171875 232.734375 215.171875 C 233.035156 215.171875 233.277344 215.414062 233.277344 215.714844 L 233.277344 217.824219 C 233.277344 218.125 233.035156 218.367188 232.734375 218.367188 C 232.433594 218.367188 232.191406 218.125 232.191406 217.824219 Z M 235.8125 217.824219 L 235.8125 215.714844 C 235.8125 215.414062 236.054688 215.171875 236.355469 215.171875 C 236.65625 215.171875 236.898438 215.414062 236.898438 215.714844 L 236.898438 217.824219 C 236.898438 218.125 236.65625 218.367188 236.355469 218.367188 C 236.054688 218.367188 235.8125 218.125 235.8125 217.824219 Z M 203.574219 164.296875 L 203.574219 162.1875 C 203.574219 161.886719 203.816406 161.644531 204.117188 161.644531 C 204.417969 161.644531 204.660156 161.886719 204.660156 162.1875 L 204.660156 164.296875 C 204.660156 164.597656 204.417969 164.839844 204.117188 164.839844 C 203.816406 164.839844 203.574219 164.597656 203.574219 164.296875 Z M 207.191406 164.296875 L 207.191406 162.1875 C 207.191406 161.886719 207.4375 161.644531 207.734375 161.644531 C 208.035156 161.644531 208.277344 161.886719 208.277344 162.1875 L 208.277344 164.296875 C 208.277344 164.597656 208.035156 164.839844 207.734375 164.839844 C 207.4375 164.839844 207.191406 164.597656 207.191406 164.296875 Z M 203.574219 170.089844 L 203.574219 167.980469 C 203.574219 167.679688 203.816406 167.4375 204.117188 167.4375 C 204.417969 167.4375 204.660156 167.679688 204.660156 167.980469 L 204.660156 170.089844 C 204.660156 170.390625 204.417969 170.632812 204.117188 170.632812 C 203.816406 170.632812 203.574219 170.390625 203.574219 170.089844 Z M 207.191406 170.089844 L 207.191406 167.980469 C 207.191406 167.679688 207.4375 167.4375 207.734375 167.4375 C 208.035156 167.4375 208.277344 167.679688 208.277344 167.980469 L 208.277344 170.089844 C 208.277344 170.390625 208.035156 170.632812 207.734375 170.632812 C 207.4375 170.632812 207.191406 170.390625 207.191406 170.089844 Z M 203.574219 175.882812 L 203.574219 173.769531 C 203.574219 173.46875 203.816406 173.226562 204.117188 173.226562 C 204.417969 173.226562 204.660156 173.46875 204.660156 173.769531 L 204.660156 175.882812 C 204.660156 176.183594 204.417969 176.425781 204.117188 176.425781 C 203.816406 176.425781 203.574219 176.183594 203.574219 175.882812 Z M 207.191406 175.882812 L 207.191406 173.769531 C 207.191406 173.46875 207.4375 173.226562 207.734375 173.226562 C 208.035156 173.226562 208.277344 173.46875 208.277344 173.769531 L 208.277344 175.882812 C 208.277344 176.183594 208.035156 176.425781 207.734375 176.425781 C 207.4375 176.425781 207.191406 176.183594 207.191406 175.882812 Z M 203.574219 181.671875 L 203.574219 179.5625 C 203.574219 179.261719 203.816406 179.019531 204.117188 179.019531 C 204.417969 179.019531 204.660156 179.261719 204.660156 179.5625 L 204.660156 181.671875 C 204.660156 181.972656 204.417969 182.214844 204.117188 182.214844 C 203.816406 182.214844 203.574219 181.972656 203.574219 181.671875 Z M 207.191406 181.671875 L 207.191406 179.5625 C 207.191406 179.261719 207.4375 179.019531 207.734375 179.019531 C 208.035156 179.019531 208.277344 179.261719 208.277344 179.5625 L 208.277344 181.671875 C 208.277344 181.972656 208.035156 182.214844 207.734375 182.214844 C 207.4375 182.214844 207.191406 181.972656 207.191406 181.671875 Z M 210.8125 164.296875 L 210.8125 162.1875 C 210.8125 161.886719 211.054688 161.644531 211.355469 161.644531 C 211.65625 161.644531 211.898438 161.886719 211.898438 162.1875 L 211.898438 164.296875 C 211.898438 164.597656 211.65625 164.839844 211.355469 164.839844 C 211.054688 164.839844 210.8125 164.597656 210.8125 164.296875 Z M 210.8125 170.089844 L 210.8125 167.980469 C 210.8125 167.679688 211.054688 167.4375 211.355469 167.4375 C 211.65625 167.4375 211.898438 167.679688 211.898438 167.980469 L 211.898438 170.089844 C 211.898438 170.390625 211.65625 170.632812 211.355469 170.632812 C 211.054688 170.632812 210.8125 170.390625 210.8125 170.089844 Z M 210.8125 175.882812 L 210.8125 173.769531 C 210.8125 173.46875 211.054688 173.226562 211.355469 173.226562 C 211.65625 173.226562 211.898438 173.46875 211.898438 173.769531 L 211.898438 175.882812 C 211.898438 176.183594 211.65625 176.425781 211.355469 176.425781 C 211.054688 176.425781 210.8125 176.183594 210.8125 175.882812 Z M 210.8125 181.671875 L 210.8125 179.5625 C 210.8125 179.261719 211.054688 179.019531 211.355469 179.019531 C 211.65625 179.019531 211.898438 179.261719 211.898438 179.5625 L 211.898438 181.671875 C 211.898438 181.972656 211.65625 182.214844 211.355469 182.214844 C 211.054688 182.214844 210.8125 181.972656 210.8125 181.671875 Z M 199.589844 164.296875 L 199.589844 162.1875 C 199.589844 161.886719 199.835938 161.644531 200.132812 161.644531 C 200.433594 161.644531 200.675781 161.886719 200.675781 162.1875 L 200.675781 164.296875 C 200.675781 164.597656 200.433594 164.839844 200.132812 164.839844 C 199.835938 164.839844 199.589844 164.597656 199.589844 164.296875 Z M 137.484375 178.855469 L 137.484375 176.746094 C 137.484375 176.445312 137.730469 176.203125 138.027344 176.203125 C 138.328125 176.203125 138.570312 176.445312 138.570312 176.746094 L 138.570312 178.855469 C 138.570312 179.15625 138.328125 179.398438 138.027344 179.398438 C 137.730469 179.398438 137.484375 179.15625 137.484375 178.855469 Z M 137.484375 184.648438 L 137.484375 182.539062 C 137.484375 182.238281 137.730469 181.996094 138.027344 181.996094 C 138.328125 181.996094 138.570312 182.238281 138.570312 182.539062 L 138.570312 184.648438 C 138.570312 184.949219 138.328125 185.191406 138.027344 185.191406 C 137.730469 185.191406 137.484375 184.949219 137.484375 184.648438 Z M 129.523438 178.855469 L 129.523438 176.746094 C 129.523438 176.445312 129.765625 176.203125 130.066406 176.203125 C 130.367188 176.203125 130.609375 176.445312 130.609375 176.746094 L 130.609375 178.855469 C 130.609375 179.15625 130.367188 179.398438 130.066406 179.398438 C 129.765625 179.398438 129.523438 179.15625 129.523438 178.855469 Z M 133.503906 178.855469 L 133.503906 176.746094 C 133.503906 176.445312 133.746094 176.203125 134.046875 176.203125 C 134.347656 176.203125 134.589844 176.445312 134.589844 176.746094 L 134.589844 178.855469 C 134.589844 179.15625 134.347656 179.398438 134.046875 179.398438 C 133.746094 179.398438 133.503906 179.15625 133.503906 178.855469 Z M 176.113281 137.691406 C 177.472656 138.304688 178.910156 138.613281 180.355469 138.613281 C 181.589844 138.613281 182.828125 138.386719 184.019531 137.9375 C 186.191406 137.117188 187.96875 135.640625 189.171875 133.664062 C 189.171875 133.664062 189.171875 133.660156 189.175781 133.660156 C 189.183594 133.648438 189.191406 133.640625 189.195312 133.632812 C 189.203125 133.621094 189.207031 133.609375 189.210938 133.601562 C 189.21875 133.582031 189.226562 133.570312 189.234375 133.550781 C 189.242188 133.535156 189.246094 133.519531 189.253906 133.5 C 189.257812 133.484375 189.265625 133.46875 189.265625 133.449219 C 189.269531 133.433594 189.269531 133.414062 189.269531 133.394531 C 189.269531 133.378906 189.273438 133.359375 189.273438 133.34375 C 189.273438 133.328125 189.273438 133.3125 189.269531 133.292969 C 189.269531 133.277344 189.269531 133.257812 189.265625 133.238281 C 189.261719 133.222656 189.257812 133.207031 189.25 133.191406 C 189.246094 133.175781 189.238281 133.160156 189.230469 133.140625 C 189.222656 133.125 189.21875 133.109375 189.207031 133.089844 C 189.203125 133.082031 189.199219 133.070312 189.191406 133.0625 C 189.1875 133.058594 189.183594 133.050781 189.179688 133.046875 C 189.171875 133.035156 189.160156 133.019531 189.144531 133 C 189.132812 132.988281 189.121094 132.976562 189.113281 132.960938 C 189.101562 132.949219 189.085938 132.941406 189.074219 132.929688 C 189.058594 132.917969 189.042969 132.902344 189.027344 132.894531 C 189.023438 132.890625 189.019531 132.890625 189.015625 132.886719 C 189.003906 132.878906 188.992188 132.875 188.980469 132.871094 C 188.96875 132.863281 188.949219 132.855469 188.933594 132.847656 C 188.917969 132.84375 188.898438 132.835938 188.878906 132.832031 C 188.867188 132.828125 188.851562 132.824219 188.835938 132.820312 C 188.820312 132.816406 188.796875 132.8125 188.777344 132.8125 C 188.765625 132.8125 188.746094 132.808594 188.730469 132.808594 C 188.714844 132.808594 188.695312 132.808594 188.679688 132.8125 C 188.660156 132.8125 188.644531 132.816406 188.628906 132.820312 C 188.609375 132.824219 188.589844 132.828125 188.574219 132.835938 C 188.558594 132.839844 188.539062 132.84375 188.527344 132.851562 C 188.507812 132.859375 188.488281 132.871094 188.472656 132.878906 C 188.464844 132.882812 188.453125 132.886719 188.441406 132.890625 C 187.988281 133.179688 187.492188 133.421875 186.976562 133.617188 C 184.90625 134.402344 182.65625 134.332031 180.632812 133.421875 C 178.613281 132.511719 177.074219 130.867188 176.289062 128.796875 C 174.925781 125.207031 176.1875 121.191406 179.347656 119.023438 C 179.355469 119.019531 179.363281 119.011719 179.375 119.003906 C 179.390625 118.992188 179.402344 118.976562 179.417969 118.96875 C 179.429688 118.957031 179.445312 118.941406 179.453125 118.929688 C 179.464844 118.917969 179.476562 118.90625 179.488281 118.890625 C 179.496094 118.875 179.503906 118.863281 179.515625 118.847656 C 179.523438 118.832031 179.535156 118.820312 179.542969 118.800781 C 179.546875 118.785156 179.554688 118.769531 179.558594 118.753906 C 179.566406 118.734375 179.570312 118.722656 179.574219 118.703125 C 179.578125 118.683594 179.582031 118.671875 179.582031 118.652344 C 179.585938 118.632812 179.585938 118.621094 179.585938 118.601562 C 179.585938 118.582031 179.585938 118.5625 179.582031 118.542969 C 179.582031 118.53125 179.582031 118.523438 179.582031 118.511719 C 179.582031 118.503906 179.578125 118.5 179.578125 118.496094 C 179.574219 118.476562 179.570312 118.457031 179.5625 118.4375 C 179.558594 118.421875 179.554688 118.40625 179.546875 118.390625 C 179.542969 118.378906 179.535156 118.363281 179.527344 118.34375 C 179.519531 118.328125 179.507812 118.308594 179.496094 118.292969 C 179.496094 118.289062 179.496094 118.28125 179.492188 118.28125 C 179.484375 118.273438 179.476562 118.265625 179.46875 118.253906 C 179.457031 118.238281 179.445312 118.226562 179.433594 118.210938 C 179.421875 118.195312 179.40625 118.183594 179.394531 118.175781 C 179.378906 118.164062 179.367188 118.152344 179.351562 118.140625 C 179.339844 118.132812 179.320312 118.121094 179.304688 118.113281 C 179.292969 118.105469 179.277344 118.097656 179.261719 118.089844 C 179.246094 118.082031 179.230469 118.078125 179.210938 118.074219 C 179.199219 118.070312 179.179688 118.0625 179.164062 118.058594 C 179.148438 118.054688 179.128906 118.050781 179.109375 118.046875 C 179.09375 118.042969 179.078125 118.042969 179.058594 118.042969 C 179.039062 118.042969 179.019531 118.042969 179 118.046875 C 178.988281 118.046875 178.980469 118.046875 178.96875 118.046875 C 178.957031 118.046875 178.949219 118.050781 178.9375 118.054688 C 178.9375 118.054688 178.9375 118.054688 178.933594 118.054688 C 178.175781 118.160156 177.421875 118.351562 176.695312 118.625 C 174.117188 119.605469 172.070312 121.527344 170.9375 124.046875 C 169.804688 126.566406 169.71875 129.371094 170.695312 131.949219 C 171.671875 134.523438 173.597656 136.558594 176.113281 137.691406 Z M 176.996094 119.660156 C 174.738281 122.21875 174.015625 125.859375 175.269531 129.179688 C 176.15625 131.519531 177.902344 133.378906 180.1875 134.40625 C 181.417969 134.960938 182.722656 135.238281 184.035156 135.238281 C 185.011719 135.238281 185.988281 135.074219 186.941406 134.765625 C 186.015625 135.707031 184.898438 136.441406 183.632812 136.917969 C 181.324219 137.792969 178.808594 137.714844 176.558594 136.699219 C 174.308594 135.6875 172.585938 133.855469 171.710938 131.546875 C 169.917969 126.8125 172.289062 121.5 176.996094 119.660156 Z M 194.722656 124.960938 C 196.828125 125.480469 197.128906 125.78125 197.648438 127.886719 C 197.707031 128.128906 197.925781 128.300781 198.175781 128.300781 C 198.425781 128.300781 198.644531 128.128906 198.703125 127.886719 C 199.222656 125.78125 199.523438 125.480469 201.628906 124.960938 C 201.871094 124.902344 202.042969 124.683594 202.042969 124.433594 C 202.042969 124.183594 201.871094 123.964844 201.628906 123.90625 C 199.523438 123.386719 199.222656 123.085938 198.703125 120.980469 C 198.648438 120.738281 198.425781 120.566406 198.175781 120.566406 C 197.925781 120.566406 197.710938 120.738281 197.648438 120.980469 C 197.128906 123.085938 196.828125 123.386719 194.722656 123.90625 C 194.480469 123.960938 194.308594 124.183594 194.308594 124.433594 C 194.308594 124.683594 194.480469 124.898438 194.722656 124.960938 Z M 198.175781 122.871094 C 198.523438 123.625 198.984375 124.082031 199.738281 124.433594 C 198.984375 124.78125 198.527344 125.238281 198.175781 125.996094 C 197.828125 125.238281 197.367188 124.785156 196.613281 124.433594 C 197.367188 124.085938 197.828125 123.625 198.175781 122.871094 Z M 231.644531 151.386719 C 233.75 151.902344 234.050781 152.203125 234.570312 154.3125 C 234.628906 154.554688 234.847656 154.722656 235.097656 154.722656 C 235.347656 154.722656 235.566406 154.554688 235.625 154.3125 C 236.144531 152.203125 236.445312 151.902344 238.550781 151.386719 C 238.792969 151.328125 238.964844 151.109375 238.964844 150.859375 C 238.964844 150.609375 238.792969 150.390625 238.550781 150.328125 C 236.445312 149.8125 236.144531 149.511719 235.625 147.40625 C 235.570312 147.160156 235.347656 146.992188 235.097656 146.992188 C 234.847656 146.992188 234.632812 147.160156 234.570312 147.40625 C 234.050781 149.511719 233.75 149.8125 231.644531 150.328125 C 231.402344 150.386719 231.230469 150.609375 231.230469 150.859375 C 231.230469 151.109375 231.402344 151.324219 231.644531 151.386719 Z M 235.097656 149.292969 C 235.445312 150.050781 235.90625 150.507812 236.660156 150.859375 C 235.90625 151.207031 235.449219 151.664062 235.097656 152.421875 C 234.75 151.664062 234.292969 151.207031 233.535156 150.859375 C 234.292969 150.511719 234.75 150.050781 235.097656 149.292969 Z M 142.234375 149.214844 C 144.34375 149.730469 144.644531 150.03125 145.160156 152.140625 C 145.21875 152.382812 145.4375 152.550781 145.6875 152.550781 C 145.9375 152.550781 146.15625 152.382812 146.21875 152.140625 C 146.734375 150.03125 147.035156 149.730469 149.140625 149.214844 C 149.382812 149.15625 149.554688 148.9375 149.554688 148.6875 C 149.554688 148.4375 149.382812 148.21875 149.140625 148.15625 C 147.035156 147.640625 146.734375 147.339844 146.21875 145.234375 C 146.160156 144.988281 145.9375 144.820312 145.6875 144.820312 C 145.4375 144.820312 145.222656 144.988281 145.160156 145.234375 C 144.644531 147.339844 144.34375 147.640625 142.234375 148.15625 C 141.992188 148.214844 141.824219 148.4375 141.824219 148.6875 C 141.824219 148.9375 141.992188 149.152344 142.234375 149.214844 Z M 145.6875 147.121094 C 146.035156 147.878906 146.496094 148.335938 147.253906 148.6875 C 146.496094 149.035156 146.039062 149.492188 145.6875 150.25 C 145.339844 149.492188 144.882812 149.035156 144.125 148.6875 C 144.882812 148.339844 145.339844 147.878906 145.6875 147.121094 Z M 159.804688 136.199219 C 160.902344 136.199219 161.796875 135.304688 161.796875 134.207031 C 161.796875 133.109375 160.902344 132.214844 159.804688 132.214844 C 158.710938 132.214844 157.816406 133.109375 157.816406 134.207031 C 157.816406 135.304688 158.710938 136.199219 159.804688 136.199219 Z M 159.804688 133.300781 C 160.304688 133.300781 160.710938 133.707031 160.710938 134.207031 C 160.710938 134.707031 160.304688 135.113281 159.804688 135.113281 C 159.304688 135.113281 158.902344 134.707031 158.902344 134.207031 C 158.902344 133.707031 159.304688 133.300781 159.804688 133.300781 Z M 211.207031 143.800781 C 212.304688 143.800781 213.199219 142.90625 213.199219 141.808594 C 213.199219 140.710938 212.304688 139.816406 211.207031 139.816406 C 210.109375 139.816406 209.214844 140.710938 209.214844 141.808594 C 209.214844 142.90625 210.109375 143.800781 211.207031 143.800781 Z M 211.207031 140.902344 C 211.707031 140.902344 212.113281 141.308594 212.113281 141.808594 C 212.113281 142.308594 211.707031 142.714844 211.207031 142.714844 C 210.707031 142.714844 210.300781 142.308594 210.300781 141.808594 C 210.300781 141.308594 210.707031 140.902344 211.207031 140.902344 Z M 150.433594 166.03125 C 150.433594 166.382812 150.152344 166.664062 149.800781 166.664062 C 149.449219 166.664062 149.167969 166.382812 149.167969 166.03125 C 149.167969 165.679688 149.449219 165.398438 149.800781 165.398438 C 150.152344 165.398438 150.433594 165.683594 150.433594 166.03125 Z M 136.136719 156.980469 C 136.136719 156.632812 136.417969 156.347656 136.769531 156.347656 C 137.121094 156.347656 137.402344 156.632812 137.402344 156.980469 C 137.402344 157.332031 137.121094 157.617188 136.769531 157.617188 C 136.417969 157.617188 136.136719 157.332031 136.136719 156.980469 Z M 149.167969 134.902344 C 149.167969 134.550781 149.449219 134.269531 149.800781 134.269531 C 150.152344 134.269531 150.433594 134.550781 150.433594 134.902344 C 150.433594 135.253906 150.152344 135.535156 149.800781 135.535156 C 149.449219 135.535156 149.167969 135.253906 149.167969 134.902344 Z M 174.6875 143.226562 C 174.6875 143.578125 174.40625 143.859375 174.054688 143.859375 C 173.703125 143.859375 173.421875 143.578125 173.421875 143.226562 C 173.421875 142.875 173.703125 142.59375 174.054688 142.59375 C 174.40625 142.59375 174.6875 142.878906 174.6875 143.226562 Z M 197.855469 146.847656 C 197.855469 147.199219 197.570312 147.480469 197.21875 147.480469 C 196.871094 147.480469 196.585938 147.199219 196.585938 146.847656 C 196.585938 146.496094 196.871094 146.214844 197.21875 146.214844 C 197.570312 146.214844 197.855469 146.5 197.855469 146.847656 Z M 216.496094 130.195312 C 216.496094 129.84375 216.777344 129.5625 217.128906 129.5625 C 217.480469 129.5625 217.761719 129.84375 217.761719 130.195312 C 217.761719 130.546875 217.480469 130.828125 217.128906 130.828125 C 216.777344 130.828125 216.496094 130.546875 216.496094 130.195312 Z M 187.539062 120.421875 C 187.539062 120.070312 187.820312 119.789062 188.171875 119.789062 C 188.523438 119.789062 188.804688 120.070312 188.804688 120.421875 C 188.804688 120.773438 188.523438 121.054688 188.171875 121.054688 C 187.820312 121.054688 187.539062 120.773438 187.539062 120.421875 Z M 229.527344 141.417969 C 229.527344 141.066406 229.808594 140.785156 230.160156 140.785156 C 230.511719 140.785156 230.792969 141.066406 230.792969 141.417969 C 230.792969 141.769531 230.511719 142.050781 230.160156 142.050781 C 229.808594 142.050781 229.527344 141.769531 229.527344 141.417969 Z M 223.375 153 C 223.375 152.648438 223.65625 152.367188 224.007812 152.367188 C 224.359375 152.367188 224.640625 152.648438 224.640625 153 C 224.640625 153.351562 224.359375 153.632812 224.007812 153.632812 C 223.65625 153.632812 223.375 153.351562 223.375 153 Z M 239.210938 160.332031 C 239.5625 160.332031 239.84375 160.613281 239.84375 160.964844 C 239.84375 161.316406 239.5625 161.597656 239.210938 161.597656 C 238.859375 161.597656 238.578125 161.316406 238.578125 160.964844 C 238.578125 160.613281 238.859375 160.332031 239.210938 160.332031 Z M 239.210938 160.332031 " fill-opacity="1" fill-rule="nonzero"/></g></svg>