<svg xml:space="preserve" viewBox="46 214 78 56" version="1.1" xmlns:xlink="http://www.w3.org/1999/xlink" xmlns="http://www.w3.org/2000/svg" style="max-height: 500px" width="78" height="56">
<desc>Created with Fabric.js 3.5.0</desc>
<defs>
</defs>
<rect fill="#ffffff" height="100%" width="100%" y="0" x="0"/>
<g id="886092" transform="matrix(0.1872 0 0 0.1994 82.9554 240.5125)">
<path stroke-linecap="round" d="M 185.692 1.013 C 141.737 8.174 108.25 44.994 106.174 88.444 C 105.91 93.978 105.607 95.807 104.993 95.572 C 103.008 94.81 66.5 109.735 49.392 118.304 C -10.2 148.15 -16.941 172.985 32.715 179.751 C 40.453 180.805 75.429 181.521 76.215 180.641 C 76.366 180.472 76.684 179.255 76.922 177.937 L 77.355 175.541 L 68.275 175.106 C -1.917 171.739 9.086 140.08 93 103.961 L 105 98.796 L 105.483 133.565 C 105.748 152.687 106.048 169.683 106.149 171.333 L 106.333 174.333 L 101.5 174.529 C 98.842 174.637 96.667 174.848 96.667 174.998 C 96.667 177.919 98.345 178.819 103.004 178.397 L 107.723 177.97 L 109.148 182.809 C 110.841 188.557 110.948 188.36 106.665 187.333 C 95.822 184.732 92.338 177.904 90.692 156.029 C 90.294 150.74 89.877 146.321 89.765 146.21 C 89.653 146.098 89.2 150.887 88.757 156.852 C 86.722 184.282 82.608 188.124 53.54 189.739 C 43.622 190.29 44.432 190.968 55.711 191.556 C 82.449 192.95 86.618 197.148 88.92 225 C 89.841 236.13 89.692 236.531 91.315 218.542 C 92.875 201.244 97.253 195.327 110.219 192.994 C 113.614 192.383 119.891 204.895 118.694 209.888 C 117.294 215.72 114.962 217.189 106.11 217.814 C 99.616 218.272 100.179 219.004 107.422 219.522 C 116.357 220.16 118.295 222.151 119.261 231.68 C 120.016 239.127 120.378 239.278 120.868 232.348 C 121.348 225.541 122.645 222.479 125.652 221.052 C 128.886 219.517 128.981 219.557 134.709 224.878 C 181.725 268.558 256.121 255.442 284.791 198.419 C 291.702 184.674 294.056 173.168 294.602 150.468 L 295 133.936 L 307 129.397 C 401.064 93.818 428.376 58.298 368.667 49.197 C 354.716 47.071 298.236 48.83 286.216 51.766 C 285.054 52.049 284.403 51.543 282.952 49.227 C 268.291 25.823 251.608 11.946 229.419 4.695 C 216.522 0.48 198.351 -1.05 185.692 1.013 M 216.333 3.016 C 247.589 8.458 273.49 29.605 285.344 59.36 C 291.222 74.115 291.533 76.32 291.832 105.418 L 292.096 131.169 L 290.215 131.85 C 289.18 132.224 287.808 132.743 287.167 133.003 C 286.069 133.448 286 132.147 286 111.12 C 286 76.54 283.44 65.595 271.007 47.011 C 230.28 -13.861 135.402 2.591 117.286 73.667 C 114.163 85.921 112.633 156.494 115.205 169.667 C 115.98 173.634 116.13 173.407 112.464 173.821 C 109.812 174.119 109.487 173.999 109.097 172.576 C 106.75 164.004 106.789 86.039 109.145 75.667 C 120.519 25.591 166.602 -5.643 216.333 3.016 M 209.419 11.337 C 243.692 15.264 272.141 39.607 280.62 72.26 C 283.712 84.169 284.552 83.046 272.167 83.56 C 266.392 83.8 257.554 83.997 252.528 83.998 L 243.389 84 L 243.195 78.833 L 243 73.667 L 240.205 73.464 C 237.506 73.267 237.402 73.175 237.205 70.797 L 237 68.333 L 227.833 68.148 L 218.667 67.962 L 218.667 70.648 L 218.667 73.333 L 215.667 73.333 L 212.667 73.333 L 212.667 82 L 212.667 90.667 L 207.667 90.667 L 202.667 90.667 L 202.667 75.667 C 202.667 67.417 202.405 60.667 202.086 60.667 C 201.766 60.667 196.534 64.253 190.458 68.636 L 179.41 76.606 L 179.205 74.136 L 179 71.667 L 173.833 71.472 L 168.667 71.277 L 168.667 65.305 C 168.667 61.768 168.395 59.333 168 59.333 C 167.605 59.333 167.333 61.778 167.333 65.333 L 167.333 71.333 L 165.333 71.333 C 163.407 71.333 163.333 71.222 163.333 68.333 C 163.333 66.683 163.033 65.333 162.667 65.333 C 162.3 65.333 162 66.67 162 68.304 L 162 71.275 L 157.167 71.471 L 152.333 71.667 L 152.155 87.5 L 151.976 103.333 L 147.988 103.333 L 144 103.333 L 144 98.667 L 144 94 L 129.922 94 L 115.843 94 L 116.314 88.833 C 120.71 40.607 162.354 5.944 209.419 11.337 M 183.667 19.264 C 176.132 22.752 173.212 31.481 177.022 39.127 C 181.589 48.292 194.327 49.809 200.921 41.973 C 203.129 39.348 202.643 38.466 199.674 39.707 C 187.852 44.646 177.566 29.337 186.914 20.717 C 190.076 17.801 188.424 17.061 183.667 19.264 M 183.261 23.141 C 178.916 31.665 184.683 41.245 194.615 42 L 199 42.333 L 195.796 43.911 C 182.48 50.467 170.25 33.75 180.71 23.29 C 184 20 184.889 19.948 183.261 23.141 M 200 21.333 C 200 21.7 200.45 22 201 22 C 201.55 22 202 21.7 202 21.333 C 202 20.967 201.55 20.667 201 20.667 C 200.45 20.667 200 20.967 200 21.333 M 213.996 23.342 C 213.513 24.509 212.502 25.517 211.582 25.747 C 209.505 26.269 209.557 27.744 211.67 28.275 C 212.709 28.535 213.666 29.49 214.2 30.8 L 215.06 32.907 L 216.507 30.454 C 217.304 29.104 218.397 28 218.938 28 C 220.7 28 220.789 26.68 219.072 26.027 C 218.151 25.677 216.925 24.478 216.348 23.362 C 215.057 20.866 215.022 20.866 213.996 23.342 M 216.49 26.09 C 217.696 27.296 215.633 29.078 214.307 27.978 C 213.555 27.354 213.499 26.937 214.073 26.245 C 214.994 25.135 215.503 25.103 216.49 26.09 M 158.8 38.8 C 156.576 41.024 158.863 44.398 161.833 43.276 C 164.408 42.304 163.456 38 160.667 38 C 160.08 38 159.24 38.36 158.8 38.8 M 162 40.699 C 162 41.004 161.674 41.456 161.275 41.703 C 160.35 42.275 159.045 41.007 159.613 40.087 C 160.086 39.322 162 39.812 162 40.699 M 145.76 41.129 C 145.009 41.88 145.302 42.667 146.333 42.667 C 146.883 42.667 147.333 42.384 147.333 42.039 C 147.333 41.199 146.292 40.597 145.76 41.129 M 231.77 49.886 C 230.356 51.448 230.38 52.2 231.886 53.563 C 233.788 55.285 236.667 54.143 236.667 51.667 C 236.667 49.11 233.511 47.962 231.77 49.886 M 260 51 C 260 51.55 260.3 52 260.667 52 C 261.033 52 261.333 51.55 261.333 51 C 261.333 50.45 261.033 50 260.667 50 C 260.3 50 260 50.45 260 51 M 234.667 51.667 C 234.667 52.217 234.217 52.667 233.667 52.667 C 233.117 52.667 232.667 52.217 232.667 51.667 C 232.667 51.117 233.117 50.667 233.667 50.667 C 234.217 50.667 234.667 51.117 234.667 51.667 M 180.313 53.367 C 179.679 54.392 180.547 55.053 181.403 54.197 C 181.881 53.719 181.893 53.346 181.437 53.064 C 181.064 52.834 180.558 52.97 180.313 53.367 M 336 54.009 C 401.91 58.935 387.745 91.445 304.667 125.927 L 295 129.939 L 294.6 106.469 C 294.151 80.064 293.66 76.03 289.354 63.345 C 286.439 54.756 286.442 54.743 291.667 54.589 C 293.5 54.535 298.45 54.283 302.667 54.028 C 314.859 53.29 326.294 53.284 336 54.009 M 139.33 57.675 C 138.98 58.596 137.937 59.694 137.013 60.115 C 134.884 61.086 134.883 61.862 137.012 62.671 C 137.935 63.022 138.978 64.065 139.329 64.988 C 140.138 67.117 140.914 67.116 141.885 64.987 C 142.306 64.063 143.404 63.02 144.325 62.67 C 146.525 61.833 146.44 61.125 144.03 60.215 C 142.785 59.746 141.9 58.833 141.624 57.736 C 141.074 55.541 140.151 55.517 139.33 57.675 M 213.028 58.621 C 212.573 59.357 213.625 60.153 214.24 59.537 C 214.874 58.904 214.756 58 214.039 58 C 213.694 58 213.239 58.279 213.028 58.621 M 141.496 62.376 C 139.835 63.59 138.43 62.361 139.507 60.637 C 140.226 59.484 140.38 59.47 141.471 60.458 C 142.593 61.473 142.594 61.572 141.496 62.376 M 266.392 61.004 C 266.131 62.042 265.176 62.999 263.866 63.534 L 261.76 64.393 L 264.213 65.841 C 265.563 66.637 266.667 67.731 266.667 68.272 C 266.667 70.076 267.994 70.103 268.674 68.313 C 269.057 67.307 270.204 66.222 271.34 65.794 C 273.848 64.847 273.852 64.311 271.357 63.441 C 270.09 63 269.226 62.138 268.951 61.043 C 268.403 58.858 266.936 58.836 266.392 61.004 M 268.586 65.7 C 267.652 66.634 267.469 66.634 266.694 65.7 C 265.342 64.07 267.101 62.148 268.586 63.633 C 269.519 64.567 269.519 64.767 268.586 65.7 M 201.193 69.133 L 201 74.933 L 188.167 84.122 L 175.333 93.311 L 175.333 87.392 L 175.333 81.474 L 187.833 72.422 C 202.677 61.674 201.43 61.981 201.193 69.133 M 251.333 67.667 C 251.333 68.217 251.633 68.667 252 68.667 C 252.367 68.667 252.667 68.217 252.667 67.667 C 252.667 67.117 252.367 66.667 252 66.667 C 251.633 66.667 251.333 67.117 251.333 67.667 M 235.333 71.333 L 235.333 73.333 L 227.979 73.333 C 222.057 73.333 220.55 73.139 220.241 72.333 C 219.252 69.756 220.342 69.333 227.979 69.333 L 235.333 69.333 L 235.333 71.333 M 178 75.612 C 178 77.498 177.597 78.14 175.667 79.333 L 173.333 80.775 L 173.333 122.977 L 173.333 165.178 L 171.833 165.58 C 171.008 165.801 169.658 165.986 168.833 165.991 L 167.333 166 L 167.247 144.833 C 167.2 133.192 166.975 119.167 166.747 113.667 L 166.333 103.667 L 159.833 103.476 C 153.921 103.302 153.333 103.169 153.333 101.998 C 153.333 100.815 153.93 100.695 160.669 100.522 C 164.99 100.411 168.005 100.059 168.005 99.667 C 168.005 99.274 164.99 98.923 160.669 98.811 C 153.366 98.624 153.333 98.616 153.333 96.978 L 153.333 95.333 L 161 95.333 C 171.02 95.333 171.159 94.106 161.167 93.855 L 153.667 93.667 L 153.456 91.833 L 153.245 90 L 160.956 90 C 165.652 90 168.667 89.739 168.667 89.333 C 168.667 88.928 165.667 88.667 161 88.667 L 153.333 88.667 L 153.333 87.022 C 153.333 85.382 153.355 85.376 160.833 85.189 C 165.263 85.077 168.333 84.727 168.333 84.333 C 168.333 83.94 165.263 83.59 160.833 83.478 C 153.383 83.291 153.333 83.279 153.333 81.667 C 153.333 80.057 153.393 80.042 160.669 79.855 C 164.99 79.744 168.005 79.393 168.005 79 C 168.005 78.607 164.99 78.256 160.669 78.145 L 153.333 77.956 L 153.333 75.645 L 153.333 73.333 L 165.667 73.333 L 178 73.333 L 178 75.612 M 241.333 79.333 C 241.333 82 241.048 84 240.667 84 C 240.3 84 240 83.075 240 81.944 C 240 79.394 238.43 79.623 238.122 82.218 C 238.006 83.198 237.631 84 237.289 84 C 236.93 84 236.667 88.471 236.667 94.574 C 236.667 100.389 236.476 106.539 236.243 108.24 L 235.819 111.333 L 232.909 111.333 C 230.029 111.333 230 111.356 230 113.667 C 230 115.889 229.889 116 227.667 116 L 225.333 116 L 225.333 120 L 225.333 124 L 223 124 L 220.667 124 L 220.667 107.333 C 220.667 92.963 220.529 90.667 219.667 90.667 C 219.111 90.667 218.667 90.074 218.667 89.333 C 218.667 88.6 218.367 88 218 88 C 217.633 88 217.333 88.6 217.333 89.333 C 217.333 90.311 216.889 90.667 215.667 90.667 L 214 90.667 L 214 82.667 L 214 74.667 L 227.667 74.667 L 241.333 74.667 L 241.333 79.333 M 200.551 81.422 C 200.064 81.715 194.267 85.85 187.667 90.612 L 175.667 99.27 L 175.449 97.19 C 175.321 95.963 175.595 94.897 176.116 94.591 C 176.602 94.305 182.4 90.19 189 85.446 L 201 76.82 L 201.217 78.855 C 201.344 80.041 201.066 81.112 200.551 81.422 M 272.667 79 C 272.667 79.55 273.117 80 273.667 80 C 274.217 80 274.667 79.55 274.667 79 C 274.667 78.45 274.217 78 273.667 78 C 273.117 78 272.667 78.45 272.667 79 M 217.333 82.373 C 217.333 83.785 217.603 84.579 218 84.333 C 218.367 84.107 218.667 83.039 218.667 81.961 C 218.667 80.882 218.367 80 218 80 C 217.633 80 217.333 81.068 217.333 82.373 M 222.786 82.095 C 222.904 83.326 223.3 84.258 223.667 84.167 C 224.657 83.919 224.474 80.491 223.452 80.151 C 222.814 79.938 222.63 80.472 222.786 82.095 M 228 81.961 C 228 83.039 228.3 84.107 228.667 84.333 C 229.063 84.579 229.333 83.785 229.333 82.373 C 229.333 81.068 229.033 80 228.667 80 C 228.3 80 228 80.882 228 81.961 M 233.333 82.373 C 233.333 83.785 233.603 84.579 234 84.333 C 234.367 84.107 234.667 83.039 234.667 81.961 C 234.667 80.882 234.367 80 234 80 C 233.633 80 233.333 81.068 233.333 82.373 M 201.333 85.169 C 201.333 86.788 199.889 88.04 189.167 95.723 C 174.059 106.547 175.333 105.839 175.333 103.408 C 175.333 101.572 176.38 100.65 187.833 92.402 C 201.707 82.41 201.333 82.61 201.333 85.169 M 145.461 86.05 C 145.593 86.444 145.985 86.767 146.333 86.767 C 146.682 86.767 147.074 86.444 147.206 86.05 C 147.337 85.656 146.944 85.333 146.333 85.333 C 145.722 85.333 145.33 85.656 145.461 86.05 M 283.333 86.333 C 283.333 87.203 280.37 87.333 260.667 87.333 C 240.963 87.333 238 87.203 238 86.333 C 238 85.464 240.963 85.333 260.667 85.333 C 280.37 85.333 283.333 85.464 283.333 86.333 M 222.965 88.85 C 222.435 90.232 222.812 92.033 223.667 92.202 C 224.596 92.385 224.933 89.333 224.078 88.478 C 223.588 87.988 223.253 88.099 222.965 88.85 M 228 90.333 C 228 91.617 228.3 92.667 228.667 92.667 C 229.033 92.667 229.333 91.617 229.333 90.333 C 229.333 89.05 229.033 88 228.667 88 C 228.3 88 228 89.05 228 90.333 M 233.333 90.333 C 233.333 91.617 233.633 92.667 234 92.667 C 234.367 92.667 234.667 91.617 234.667 90.333 C 234.667 89.05 234.367 88 234 88 C 233.633 88 233.333 89.05 233.333 90.333 M 201.333 91.251 C 201.333 92.95 177.838 111.333 175.667 111.333 C 171.72 111.333 196.198 89.998 200.833 89.398 C 201.108 89.362 201.333 90.196 201.333 91.251 M 283.842 111.805 C 284.011 133.024 283.965 133.972 282.742 134.626 C 281.773 135.145 281.376 135.072 281.088 134.321 C 280.852 133.707 279.819 133.333 278.354 133.333 C 274.593 133.333 274.729 128.852 278.5 128.54 L 281 128.333 L 281.2 124.5 L 281.4 120.667 L 277.367 120.667 C 273.509 120.667 273.333 120.739 273.333 122.333 C 273.333 123.864 273.089 124 270.333 124 C 267.578 124 267.333 123.864 267.333 122.333 C 267.333 120.741 267.156 120.667 263.333 120.667 L 259.333 120.667 L 259.333 118.333 C 259.333 116.111 259.222 116 257 116 C 254.778 116 254.667 115.889 254.667 113.667 C 254.667 112.383 254.367 111.333 254 111.333 C 253.633 111.333 253.333 110.583 253.333 109.667 C 253.333 108.074 253.156 108 249.333 108 C 245.511 108 245.333 108.074 245.333 109.667 C 245.333 111.242 245.133 111.333 241.667 111.333 L 238 111.333 L 238 100.325 L 238 89.316 L 260.833 89.491 L 283.667 89.667 L 283.842 111.805 M 219 95 L 219 97.667 L 213.812 97.862 C 207.174 98.111 207.64 99.333 214.373 99.333 C 218.853 99.333 219.333 99.46 219.333 100.639 C 219.333 101.801 218.787 101.965 214.328 102.139 C 211.566 102.246 209.324 102.632 209.324 103 C 209.324 103.368 211.566 103.754 214.328 103.861 C 221.972 104.159 221.843 106.516 214.167 106.805 C 211.296 106.913 209 107.296 209 107.667 C 209 108.037 211.296 108.42 214.167 108.528 C 218.746 108.701 219.333 108.868 219.333 110 C 219.333 111.132 218.746 111.299 214.167 111.472 C 211.296 111.58 209 111.963 209 112.333 C 209 112.704 211.296 113.087 214.167 113.195 C 217.008 113.302 219.329 113.602 219.323 113.861 C 219.291 115.369 217.848 115.952 213.701 116.133 C 206.959 116.427 206.883 118 213.611 118 C 218.222 118 218.667 118.117 218.667 119.333 C 218.667 120.548 218.222 120.667 213.667 120.667 C 209.667 120.667 208.667 120.867 208.667 121.667 C 208.667 122.467 209.667 122.667 213.667 122.667 C 216.556 122.667 218.667 122.948 218.667 123.333 C 218.667 123.719 216.556 124 213.667 124 L 208.667 124 L 208.667 140.919 L 208.667 157.838 L 206.105 158.488 L 203.543 159.138 L 203.075 126.22 C 202.818 108.114 202.795 92.999 203.023 92.63 C 203.274 92.223 206.507 92.032 211.219 92.146 L 219 92.333 L 219 95 M 259.808 95.081 C 259.547 95.342 259.333 97.156 259.333 99.111 L 259.333 102.667 L 263.367 102.667 L 267.4 102.667 L 267.2 98.833 L 267 95 L 263.641 94.803 C 261.794 94.695 260.069 94.82 259.808 95.081 M 273.333 98.633 L 273.333 102.667 L 277.367 102.667 L 281.4 102.667 L 281.2 98.833 L 281 95 L 277.167 94.8 L 273.333 94.6 L 273.333 98.633 M 142.533 99.5 L 142.733 103.333 L 139.033 103.333 C 135.778 103.333 135.333 103.173 135.333 102 C 135.333 101.267 135.033 100.667 134.667 100.667 C 134.3 100.667 134 101.249 134 101.961 C 134 102.672 133.7 103.44 133.333 103.667 C 132.967 103.893 132.664 105.936 132.661 108.206 C 132.653 113.773 131.943 119.333 131.24 119.333 C 130.925 119.333 130.667 118.733 130.667 118 C 130.667 117.259 130.222 116.667 129.667 116.667 C 129.111 116.667 128.667 117.259 128.667 118 C 128.667 118.889 128.222 119.333 127.333 119.333 C 126.148 119.333 126 118.889 126 115.333 C 126 113.111 125.704 111.333 125.333 111.333 C 124.967 111.333 124.667 110.733 124.667 110 C 124.667 108.438 123.647 108.222 123.092 109.667 C 122.881 110.217 121.949 110.667 121.021 110.667 C 119.965 110.667 119.333 110.292 119.333 109.667 C 119.333 108.256 117.351 108.415 117.25 109.833 C 117.063 112.452 116.095 104.652 116.049 100.153 L 116 95.305 L 129.167 95.486 L 142.333 95.667 L 142.533 99.5 M 200.553 99.71 C 200.065 100.185 194.267 104.46 187.667 109.21 L 175.667 117.847 L 175.452 115.853 C 175.308 114.505 175.632 113.579 176.452 112.997 C 177.12 112.524 182.917 108.361 189.333 103.747 C 200.559 95.674 201.008 95.423 201.22 97.102 C 201.34 98.061 201.04 99.235 200.553 99.71 M 246 98.965 L 246 102.667 L 249.702 102.667 L 253.403 102.667 L 253.202 99.167 L 253 95.667 L 249.5 95.465 L 246 95.264 L 246 98.965 M 222.667 98.667 C 222.667 100 223 100.667 223.667 100.667 C 224.333 100.667 224.667 100 224.667 98.667 C 224.667 97.333 224.333 96.667 223.667 96.667 C 223 96.667 222.667 97.333 222.667 98.667 M 228 98.667 C 228 99.767 228.3 100.667 228.667 100.667 C 229.033 100.667 229.333 99.767 229.333 98.667 C 229.333 97.567 229.033 96.667 228.667 96.667 C 228.3 96.667 228 97.567 228 98.667 M 233.333 98.667 C 233.333 99.767 233.633 100.667 234 100.667 C 234.367 100.667 234.667 99.767 234.667 98.667 C 234.667 97.567 234.367 96.667 234 96.667 C 233.633 96.667 233.333 97.567 233.333 98.667 M 251.333 98.667 C 251.333 100.444 251.111 100.667 249.333 100.667 C 247.556 100.667 247.333 100.444 247.333 98.667 C 247.333 96.889 247.556 96.667 249.333 96.667 C 251.111 96.667 251.333 96.889 251.333 98.667 M 265.333 99 C 265.333 100.407 265.022 100.667 263.333 100.667 C 261.644 100.667 261.333 100.407 261.333 99 C 261.333 97.593 261.644 97.333 263.333 97.333 C 265.022 97.333 265.333 97.593 265.333 99 M 278.667 99 C 278.667 100.333 278.333 100.667 277 100.667 C 275.667 100.667 275.333 100.333 275.333 99 C 275.333 97.667 275.667 97.333 277 97.333 C 278.333 97.333 278.667 97.667 278.667 99 M 117.632 101.516 C 117.102 102.899 117.478 104.7 118.333 104.869 C 119.263 105.052 119.6 102 118.745 101.145 C 118.254 100.654 117.92 100.766 117.632 101.516 M 123.333 103 C 123.333 104.283 123.633 105.333 124 105.333 C 124.367 105.333 124.667 104.283 124.667 103 C 124.667 101.717 124.367 100.667 124 100.667 C 123.633 100.667 123.333 101.717 123.333 103 M 128.965 101.516 C 128.435 102.899 128.812 104.7 129.667 104.869 C 130.596 105.052 130.933 102 130.078 101.145 C 129.588 100.654 129.253 100.766 128.965 101.516 M 201.214 105.643 C 199.394 107.192 178.853 121.547 177.33 122.335 L 175.237 123.418 L 175.452 121.588 C 175.631 120.064 177.776 118.237 188.333 110.619 L 201 101.479 L 201.214 103.47 C 201.331 104.565 201.331 105.543 201.214 105.643 M 222.965 105.516 C 222.435 106.899 222.812 108.7 223.667 108.869 C 224.596 109.052 224.933 106 224.078 105.145 C 223.588 104.654 223.253 104.766 222.965 105.516 M 228 106.627 C 228 107.706 228.3 108.773 228.667 109 C 229.063 109.245 229.333 108.451 229.333 107.039 C 229.333 105.734 229.033 104.667 228.667 104.667 C 228.3 104.667 228 105.549 228 106.627 M 233.333 107 C 233.333 108.283 233.633 109.333 234 109.333 C 234.367 109.333 234.667 108.283 234.667 107 C 234.667 105.717 234.367 104.667 234 104.667 C 233.633 104.667 233.333 105.717 233.333 107 M 165.333 135.667 L 165.333 166 L 150 166 L 134.667 166 L 134.664 143.167 C 134.662 130.608 134.466 116.958 134.228 112.833 L 133.796 105.333 L 149.565 105.333 L 165.333 105.333 L 165.333 135.667 M 201.333 109.912 C 201.333 111.585 200.497 112.399 194.654 116.412 C 190.98 118.936 185.264 122.875 181.951 125.167 C 175.18 129.85 175.333 129.783 175.333 128.107 C 175.333 126.774 178.829 123.851 191.975 114.193 C 201.401 107.268 201.333 107.299 201.333 109.912 M 259.333 111.667 L 259.333 115.333 L 263.333 115.333 L 267.333 115.333 L 267.333 111.667 L 267.333 108 L 263.333 108 L 259.333 108 L 259.333 111.667 M 273.333 111.667 L 273.333 115.333 L 277.333 115.333 L 281.333 115.333 L 281.333 111.667 L 281.333 108 L 277.333 108 L 273.333 108 L 273.333 111.667 M 129.093 109.129 C 128.451 109.771 128.581 113.202 129.263 113.623 C 129.94 114.042 130.667 112.503 130.667 110.651 C 130.667 109.306 129.777 108.445 129.093 109.129 M 138 112.651 L 138 116 L 150.037 116 L 162.073 116 L 161.87 112.833 L 161.667 109.667 L 149.833 109.485 L 138 109.303 L 138 112.651 M 251.333 110.667 C 251.333 111.033 250.583 111.333 249.667 111.333 C 248.75 111.333 248 111.033 248 110.667 C 248 110.3 248.75 110 249.667 110 C 250.583 110 251.333 110.3 251.333 110.667 M 265.333 111.667 C 265.333 113.074 265.022 113.333 263.333 113.333 C 261.644 113.333 261.333 113.074 261.333 111.667 C 261.333 110.259 261.644 110 263.333 110 C 265.022 110 265.333 110.259 265.333 111.667 M 278.667 111.667 C 278.667 113 278.333 113.333 277 113.333 C 275.667 113.333 275.333 113 275.333 111.667 C 275.333 110.333 275.667 110 277 110 C 278.333 110 278.667 110.333 278.667 111.667 M 160.667 113 L 160.667 114.667 L 150 114.667 L 139.333 114.667 L 139.333 113 L 139.333 111.333 L 150 111.333 L 160.667 111.333 L 160.667 113 M 124 116.333 L 124 119.333 L 120.333 119.333 L 116.667 119.333 L 116.667 116.333 L 116.667 113.333 L 120.333 113.333 L 124 113.333 L 124 116.333 M 252.667 114.667 C 252.667 115.943 252.222 116 242.333 116 C 232.444 116 232 115.943 232 114.667 C 232 113.391 232.444 113.333 242.333 113.333 C 252.222 113.333 252.667 113.391 252.667 114.667 M 200.633 118.374 C 200.195 118.901 199.551 119.333 199.201 119.333 C 198.851 119.333 193.338 123.079 186.949 127.656 C 176.544 135.112 175.333 135.812 175.333 134.376 C 175.333 133.09 176.857 131.691 183.018 127.321 C 187.244 124.323 191.195 121.374 191.798 120.768 C 192.401 120.162 194.718 118.377 196.947 116.801 L 201 113.935 L 201.215 115.675 C 201.333 116.631 201.071 117.846 200.633 118.374 M 257.333 130.333 L 257.333 142.667 L 254.386 142.667 C 251.602 142.667 251.413 142.547 250.97 140.5 C 249.05 131.635 236.155 130.629 234.282 139.198 C 233.543 142.58 233.445 142.667 230.354 142.667 L 227.333 142.667 L 227.333 130.333 L 227.333 118 L 242.333 118 L 257.333 118 L 257.333 130.333 M 132 143.689 L 132 166.044 L 124.5 165.855 L 117 165.667 L 116.824 143.5 L 116.649 121.333 L 124.324 121.333 L 132 121.333 L 132 143.689 M 137.778 121.778 C 137.533 122.022 137.333 123.672 137.333 125.444 L 137.333 128.667 L 149.667 128.667 L 162 128.667 L 162 125 L 162 121.333 L 150.111 121.333 C 143.572 121.333 138.022 121.533 137.778 121.778 M 200.546 122.8 C 200.348 124.163 195.645 127.812 179.115 139.428 C 175.277 142.124 175.232 142.137 175.448 140.452 C 175.621 139.098 178.147 136.958 187.667 130.094 C 200.636 120.743 200.864 120.614 200.546 122.8 M 265.333 123.333 C 265.333 123.7 264.433 124 263.333 124 C 262.233 124 261.333 123.7 261.333 123.333 C 261.333 122.967 262.233 122.667 263.333 122.667 C 264.433 122.667 265.333 122.967 265.333 123.333 M 278.667 124.333 C 278.667 125.556 278.311 126 277.333 126 C 276.6 126 276 125.725 276 125.388 C 276 125.051 275.818 124.301 275.595 123.721 C 275.29 122.926 275.618 122.667 276.929 122.667 C 278.338 122.667 278.667 122.982 278.667 124.333 M 160 125.333 C 160 126.609 159.556 126.667 149.667 126.667 C 139.778 126.667 139.333 126.609 139.333 125.333 C 139.333 124.057 139.778 124 149.667 124 C 159.556 124 160 124.057 160 125.333 M 232.333 124.667 C 231.319 126.308 233.177 126.667 242.706 126.667 C 252.222 126.667 252.667 126.607 252.667 125.333 C 252.667 123.837 233.239 123.2 232.333 124.667 M 120 144.667 C 120 161.407 120.134 164 121 164 C 121.866 164 122 161.407 122 144.667 C 122 127.926 121.866 125.333 121 125.333 C 120.134 125.333 120 127.926 120 144.667 M 126.667 144.667 C 126.667 161.407 126.801 164 127.667 164 C 128.533 164 128.667 161.407 128.667 144.667 C 128.667 127.926 128.533 125.333 127.667 125.333 C 126.801 125.333 126.667 127.926 126.667 144.667 M 225.333 139.955 C 225.333 152.03 225.227 153.276 224.167 153.602 C 223.525 153.799 220.225 154.697 216.833 155.599 L 210.667 157.237 L 210.667 141.952 L 210.667 126.667 L 218 126.667 L 225.333 126.667 L 225.333 139.955 M 274 132.272 L 274 137.878 L 269.837 139.283 C 267.302 140.14 265.586 140.424 265.448 140.011 C 265.091 138.941 263.333 139.222 263.333 140.35 C 263.333 141.167 260.932 142.667 259.623 142.667 C 259.464 142.667 259.333 139.067 259.333 134.667 L 259.333 126.667 L 266.667 126.667 L 274 126.667 L 274 132.272 M 200.554 130.308 C 194.615 135.529 175.628 147.856 175.44 146.614 C 175.315 145.793 175.615 144.884 176.106 144.595 C 176.598 144.306 182.25 140.298 188.667 135.689 C 198.852 128.372 200.361 127.487 200.554 128.712 C 200.675 129.483 200.675 130.202 200.554 130.308 M 214.286 132.284 C 213.741 134.458 214.322 136 215.686 136 C 216.501 136 216.699 135.433 216.54 133.552 C 216.295 130.644 214.895 129.858 214.286 132.284 M 219.778 131.111 C 218.842 132.046 219.309 136 220.354 136 C 221.672 136 222.255 134.44 221.726 132.332 C 221.311 130.681 220.633 130.256 219.778 131.111 M 263.76 131.129 C 262.852 132.037 263.318 136 264.333 136 C 265.028 136 265.333 135.301 265.333 133.706 C 265.333 131.463 264.61 130.279 263.76 131.129 M 269.093 131.129 C 268.185 132.037 268.652 136 269.667 136 C 270.362 136 270.667 135.301 270.667 133.706 C 270.667 131.463 269.944 130.279 269.093 131.129 M 200.667 146.568 L 200.667 159.803 L 190.5 161.92 C 184.908 163.084 179.208 164.217 177.833 164.439 L 175.333 164.841 L 175.333 158.132 L 175.333 151.422 L 187.833 142.4 C 194.708 137.438 200.408 133.368 200.5 133.356 C 200.592 133.343 200.667 139.289 200.667 146.568 M 137.333 137.667 L 137.333 141.333 L 149.667 141.333 L 162 141.333 L 162 137.667 L 162 134 L 149.667 134 L 137.333 134 L 137.333 137.667 M 291.818 155 C 291.545 169.432 291.347 171.659 289.795 177.723 C 272.245 246.285 192.337 271.235 138.497 224.964 L 132.333 219.667 L 135.472 219.306 C 140.097 218.774 140.155 218 135.569 218 C 130.936 218 130.495 217.649 124.399 209.097 C 121.522 205.059 120.664 203.303 120.656 201.43 C 120.649 199.67 120.475 199.271 120.026 199.981 C 119.266 201.182 119.239 201.154 117.08 196.855 C 114.774 192.263 114.804 192.166 118.616 191.898 L 121.898 191.667 L 123.344 194.667 C 145.727 241.1 208.779 256.148 250.943 225.118 C 274.441 207.825 285.089 185.683 285.808 152.62 L 286.149 136.908 L 288.908 135.951 L 291.667 134.995 L 291.894 136.997 C 292.019 138.099 291.985 146.2 291.818 155 M 244.587 136.072 C 246.656 136.793 248.667 139.535 248.667 141.634 C 248.667 142.494 247.609 142.667 242.333 142.667 C 235.45 142.667 235.196 142.494 236.817 138.936 C 238.102 136.116 241.316 134.932 244.587 136.072 M 160 137.667 L 160 139.333 L 149.667 139.333 L 139.333 139.333 L 139.333 137.667 L 139.333 136 L 149.667 136 L 160 136 L 160 137.667 M 284 147.902 C 284 153.348 283.807 159.648 283.572 161.902 L 283.143 166 L 279.572 166 L 276 166 L 276 160 L 276 154 L 278.7 154 L 281.4 154 L 281.2 150.167 L 281 146.333 L 278.5 146.126 C 274.483 145.794 274.638 141.333 278.667 141.333 C 280.808 141.333 281.333 141.093 281.333 140.111 C 281.333 138.664 281.892 138 283.111 138 C 283.812 138 284 140.095 284 147.902 M 214.26 140.285 C 213.638 141.905 214.282 144.333 215.333 144.333 C 216.008 144.333 216.401 143.519 216.54 141.833 C 216.753 139.261 215.087 138.129 214.26 140.285 M 219.456 141.776 C 219.738 145.196 221.667 145.399 221.667 142.009 C 221.667 140.294 221.35 139.624 220.456 139.452 C 219.43 139.254 219.278 139.607 219.456 141.776 M 274 153.333 L 274 166 L 266.667 166 L 259.333 166 L 259.333 155.679 L 259.333 145.359 L 261.167 144.874 C 262.175 144.608 263.418 144.475 263.929 144.58 C 264.44 144.684 265.04 144.486 265.262 144.141 C 266.063 142.898 268.667 142.501 268.667 143.622 C 268.667 145.229 269.96 144.86 270.645 143.056 C 270.982 142.17 271.8 141.305 272.462 141.134 C 273.125 140.962 273.742 140.787 273.833 140.744 C 273.925 140.701 274 146.367 274 153.333 M 233.333 147.917 C 233.333 150.928 233.199 151.194 231.5 151.537 C 230.492 151.74 229.142 152.11 228.5 152.358 C 227.467 152.758 227.333 152.343 227.333 148.738 L 227.333 144.667 L 230.333 144.667 L 233.333 144.667 L 233.333 147.917 M 248.667 145.533 C 248.667 146.265 245.376 147.493 237.167 149.824 C 236.191 150.101 236 149.707 236 147.411 L 236 144.667 L 242.333 144.667 C 247.085 144.667 248.667 144.883 248.667 145.533 M 137.61 146.908 C 137.411 147.425 137.343 149.157 137.458 150.757 L 137.667 153.667 L 149.667 153.667 L 161.667 153.667 L 161.667 150 L 161.667 146.333 L 149.818 146.151 C 140.12 146.002 137.905 146.14 137.61 146.908 M 257.333 156 L 257.333 166 L 254.333 166 L 251.333 166 L 251.333 156.784 L 251.333 147.568 L 253.833 146.868 C 255.208 146.483 256.558 146.131 256.833 146.084 C 257.108 146.038 257.333 150.5 257.333 156 M 214.281 148.229 C 213.608 149.983 214.288 152.311 215.544 152.55 C 216.567 152.746 216.722 152.394 216.544 150.275 C 216.327 147.688 214.962 146.455 214.281 148.229 M 219.792 147.764 C 218.721 148.835 219.304 152.77 220.5 152.54 C 221.339 152.378 221.667 151.677 221.667 150.046 C 221.667 147.879 220.769 146.786 219.792 147.764 M 263.333 150 C 263.333 151.926 263.611 152.667 264.333 152.667 C 265.056 152.667 265.333 151.926 265.333 150 C 265.333 148.074 265.056 147.333 264.333 147.333 C 263.611 147.333 263.333 148.074 263.333 150 M 268.667 150 C 268.667 151.926 268.944 152.667 269.667 152.667 C 270.389 152.667 270.667 151.926 270.667 150 C 270.667 148.074 270.389 147.333 269.667 147.333 C 268.944 147.333 268.667 148.074 268.667 150 M 160 150 C 160 151.276 159.556 151.333 149.667 151.333 C 139.778 151.333 139.333 151.276 139.333 150 C 139.333 148.724 139.778 148.667 149.667 148.667 C 159.556 148.667 160 148.724 160 150 M 248.667 157.333 L 248.667 166 L 242.333 166 L 236 166 L 236 159.047 L 236 152.095 L 239.833 151.013 C 241.942 150.419 244.417 149.671 245.333 149.352 C 248.695 148.182 248.667 148.114 248.667 157.333 M 278.667 150.333 C 278.667 151.37 278.289 152 277.667 152 C 277.044 152 276.667 151.37 276.667 150.333 C 276.667 149.296 277.044 148.667 277.667 148.667 C 278.289 148.667 278.667 149.296 278.667 150.333 M 233.333 159.333 L 233.333 166 L 230.333 166 L 227.333 166 L 227.333 160.066 L 227.333 154.132 L 229.833 153.468 C 231.208 153.103 232.558 152.773 232.833 152.736 C 233.108 152.698 233.333 155.667 233.333 159.333 M 225.333 160.333 L 225.333 166 L 218 166 L 210.667 166 L 210.667 162.078 C 210.667 157.887 213.601 155.218 214.133 158.925 C 214.467 161.252 216.667 161.138 216.667 158.793 C 216.667 157.383 217.046 156.723 218 156.474 C 219.145 156.174 219.333 156.453 219.333 158.445 C 219.333 160.296 219.569 160.718 220.5 160.537 C 221.333 160.374 221.677 159.651 221.702 158.01 C 221.73 156.153 222.051 155.623 223.368 155.255 C 224.266 155.004 225.075 154.77 225.167 154.733 C 225.258 154.697 225.333 157.217 225.333 160.333 M 263.333 158.333 C 263.333 159.963 263.635 160.667 264.333 160.667 C 265.032 160.667 265.333 159.963 265.333 158.333 C 265.333 156.704 265.032 156 264.333 156 C 263.635 156 263.333 156.704 263.333 158.333 M 268.667 158.333 C 268.667 159.963 268.968 160.667 269.667 160.667 C 270.365 160.667 270.667 159.963 270.667 158.333 C 270.667 156.704 270.365 156 269.667 156 C 268.968 156 268.667 156.704 268.667 158.333 M 208.667 162.333 L 208.667 166 L 206 166 L 203.333 166 L 203.333 163.019 C 203.333 160.045 204.294 159.193 208.167 158.727 C 208.442 158.694 208.667 160.317 208.667 162.333 M 200.667 163.333 L 200.667 166 L 189.833 165.923 C 183.875 165.88 179.45 165.714 180 165.554 C 181.306 165.173 199.516 160.82 200.167 160.733 C 200.442 160.697 200.667 161.867 200.667 163.333 M 142 170.383 C 126.995 172.637 118 173.176 118 171.823 C 118 171.247 117.818 170.301 117.595 169.721 C 117.232 168.775 118.992 168.675 134.762 168.749 L 152.333 168.831 L 142 170.383 M 282.667 169.612 C 282.667 172.858 286.99 172.671 213.429 172.605 L 145 172.544 L 154.333 170.689 L 163.667 168.835 L 223.167 168.751 C 274.126 168.679 282.667 168.802 282.667 169.612 M 281.333 175.548 C 281.333 176.033 280.855 177.833 280.271 179.548 L 279.208 182.667 L 200.043 182.667 L 120.878 182.667 L 120.059 179.935 C 119.038 176.525 119.074 176.492 124.88 175.586 C 132.432 174.408 281.333 174.371 281.333 175.548 M 118.211 181.833 C 119.134 184.675 120.115 187.573 120.39 188.273 C 120.856 189.457 120.645 189.516 117.355 189.127 C 113.02 188.613 113.441 189.075 111.637 182.846 L 110.138 177.667 L 112.569 177.261 C 113.906 177.038 115.345 176.813 115.766 176.761 C 116.188 176.709 117.288 178.992 118.211 181.833 M 93.833 187.062 C 95.831 189.298 95.776 192.285 93.697 194.364 C 89.294 198.766 81.932 193.484 84.93 188.073 C 86.944 184.44 91.072 183.972 93.833 187.062 M 220.701 187.178 C 232.149 195.177 228.935 202.704 209.667 213.022 C 193.846 221.493 184.723 229.164 180.899 237.212 C 180.844 237.328 177.994 236.484 174.566 235.336 C 162.615 231.333 152.185 225.216 143.86 217.328 L 139 212.723 L 141.5 212.695 C 143.546 212.672 144 212.425 144 211.333 C 144 210.157 143.55 209.998 140.167 209.983 L 136.333 209.967 L 133.27 205.817 C 131.585 203.534 129.535 200.542 128.715 199.167 L 127.225 196.667 L 128.946 196.667 C 130.031 196.667 130.667 196.297 130.667 195.667 C 130.667 194.97 129.966 194.667 128.357 194.667 C 126.755 194.667 125.835 194.271 125.357 193.377 C 124.306 191.415 124.411 191.337 128.167 191.286 C 134.107 191.207 135.015 190.1 129.184 190.047 C 123.95 189.999 122 188.729 122 185.366 C 122 184.884 136.796 184.667 169.553 184.667 L 217.106 184.667 L 220.701 187.178 M 227.449 186.597 C 240.017 194.567 236.495 203.352 215.904 215.389 C 200.477 224.409 190.512 232.212 188.634 236.745 C 187.934 238.435 185.018 238.925 183.436 237.618 C 180.869 235.498 196.611 222.901 212.953 213.999 C 229.977 204.726 233.918 196.409 225.353 187.833 C 221.687 184.163 222.684 183.575 227.449 186.597 M 234.608 188.386 C 238.203 191.714 240 192.461 240 190.627 C 240 190.282 238.8 188.8 237.333 187.333 L 234.667 184.667 L 256.65 184.667 L 278.634 184.667 L 277.958 186.443 C 266.439 216.74 232.446 240.209 201.551 239.193 L 195.667 239 L 199.5 235.153 C 203.51 231.129 204.099 230 202.188 230 C 200.64 230 194 236.642 194 238.19 C 194 239.619 191.297 239.584 190.824 238.148 C 190.018 235.703 203.929 225.016 219.282 216.285 C 237 206.21 241.582 195.736 232.041 187.117 C 230.55 185.769 229.613 184.667 229.96 184.667 C 230.307 184.667 232.398 186.34 234.608 188.386 M 265.125 188.431 C 264.181 189.374 264.715 190.667 266.049 190.667 C 266.981 190.667 267.361 190.305 267.216 189.555 C 266.978 188.328 265.84 187.716 265.125 188.431 M 246 191.667 C 246 192.217 246.45 192.667 247 192.667 C 247.55 192.667 248 192.217 248 191.667 C 248 191.117 247.55 190.667 247 190.667 C 246.45 190.667 246 191.117 246 191.667 M 150.133 192.833 C 148.879 194.089 147.697 194.388 142.87 194.667 C 139.102 194.885 137.01 195.289 136.83 195.833 C 136.393 197.16 148.593 196.977 150.518 195.629 C 151.859 194.69 152.141 194.69 153.482 195.629 C 155.544 197.074 164 197.104 164 195.667 C 164 194.892 163.124 194.667 160.116 194.667 C 156.835 194.667 155.989 194.408 154.667 193 C 152.739 190.948 152.04 190.922 150.133 192.833 M 168 195.667 C 168 196.389 168.741 196.667 170.667 196.667 C 172.593 196.667 173.333 196.389 173.333 195.667 C 173.333 194.944 172.593 194.667 170.667 194.667 C 168.741 194.667 168 194.944 168 195.667 M 190.667 195.667 C 190.667 196.498 191.963 196.667 198.333 196.667 C 204.704 196.667 206 196.498 206 195.667 C 206 194.836 204.704 194.667 198.333 194.667 C 191.963 194.667 190.667 194.836 190.667 195.667 M 212.667 195.667 C 212.667 196.407 213.444 196.667 215.667 196.667 C 217.889 196.667 218.667 196.407 218.667 195.667 C 218.667 194.926 217.889 194.667 215.667 194.667 C 213.444 194.667 212.667 194.926 212.667 195.667 M 254.115 199.773 C 254.245 200.448 254.797 201 255.342 201 C 256.771 201 256.565 199.063 255.106 198.782 C 254.215 198.61 253.944 198.882 254.115 199.773 M 238.383 203.713 C 236.476 205.619 235.797 207.398 236.655 208.238 C 237.478 209.044 240.657 205.846 240.663 204.206 C 240.669 202.856 239.493 202.602 238.383 203.713 M 175.042 207.253 C 173.821 209.614 172.87 210 168.279 210 C 165.111 210 164.667 210.164 164.667 211.333 C 164.667 213.183 170.642 213.215 174.233 211.384 C 176.561 210.198 176.93 210.178 179.184 211.12 C 182.09 212.334 186.218 211.946 188.052 210.287 C 189.222 209.227 189.435 209.218 190.5 210.18 C 193.2 212.618 203.667 213.535 203.667 211.333 C 203.667 210.56 202.47 210.249 198.394 209.96 C 193.393 209.606 193.022 209.468 191.207 207.294 L 189.293 205.002 L 187.598 207.168 C 185.069 210.4 179.233 210.243 177.965 206.909 C 177.169 204.813 176.247 204.921 175.042 207.253 M 124.33 213.255 C 126.366 216.086 126.603 216.68 125.455 216.065 C 123.816 215.188 122.374 213.141 121.653 210.667 C 121.084 208.712 121.015 208.646 124.33 213.255 M 231.296 211.054 C 230.033 212 226.236 214.411 222.857 216.412 C 216.254 220.323 215.355 221.128 216.924 221.73 C 218.758 222.434 235.333 212.101 235.333 210.254 C 235.333 208.852 233.84 209.148 231.296 211.054 M 151.687 210.634 C 150.834 212.014 152.14 212.667 155.755 212.667 C 158.896 212.667 159.399 212.497 159.209 211.5 C 158.953 210.153 152.447 209.404 151.687 210.634 M 244 217.333 C 244 218.074 244.444 218.667 245 218.667 C 245.556 218.667 246 218.074 246 217.333 C 246 216.593 245.556 216 245 216 C 244.444 216 244 216.593 244 217.333 M 166.667 220.962 C 166.667 222.464 164.021 223.951 160.524 224.415 C 158.471 224.687 157.333 225.164 157.333 225.753 C 157.333 227.088 162.479 226.925 165.333 225.499 C 167.562 224.386 167.776 224.387 170.105 225.539 C 171.701 226.328 173.64 226.674 175.719 226.539 C 180.308 226.242 180.185 224.94 175.524 224.467 C 172.289 224.139 171.39 223.747 169.951 222.038 C 168.121 219.863 166.667 219.387 166.667 220.962 M 182.162 225.5 C 182.589 226.801 186.667 226.99 186.667 225.709 C 186.667 224.958 186 224.667 184.278 224.667 C 182.665 224.667 181.978 224.937 182.162 225.5 M 219 225.333 C 218.442 226.236 219.195 227.333 220.373 227.333 C 220.901 227.333 221.333 226.733 221.333 226 C 221.333 224.62 219.725 224.16 219 225.333 M 218.115 233.773 C 218.245 234.448 218.797 235 219.342 235 C 220.771 235 220.565 233.063 219.106 232.782 C 218.215 232.61 217.944 232.882 218.115 233.773" transform="translate(-199.9405, -125.48)" style="stroke: none; stroke-width: 1; stroke-dasharray: none; stroke-linecap: butt; stroke-dashoffset: 0; stroke-linejoin: miter; stroke-miterlimit: 4; is-custom-font: none; font-file-url: none; fill: rgb(49,8,31); fill-rule: evenodd; opacity: 1;"/>
</g>
</svg>